<?xml version="1.0" encoding="UTF-8" standalone="yes"?><svg xmlns="http://www.w3.org/2000/svg" xmlns:xlink="http://www.w3.org/1999/xlink" height="504px" style="width:749px;height:504px;" version="1.1" viewBox="0 0 749 504" width="749px"><defs><filter height="300%" id="f1" width="300%" x="-1" y="-1"><feGaussianBlur result="blurOut" stdDeviation="2.0"/><feColorMatrix in="blurOut" result="blurOut2" type="matrix" values="0 0 0 0 0 0 0 0 0 0 0 0 0 0 0 0 0 0 .4 0"/><feOffset dx="4.0" dy="4.0" in="blurOut2" result="blurOut3"/><feBlend in="SourceGraphic" in2="blurOut3" mode="normal"/></filter></defs><g><polygon fill="#FFFFFF" filter="url(#f1)" points="22,24,68,24,75,47.6094,742,47.6094,742,497,22,497,22,24" style="stroke: #000000; stroke-width: 2.0;"/><line style="stroke: #000000; stroke-width: 2.0;" x1="22" x2="75" y1="47.6094" y2="47.6094"/><text fill="#000000" font-family="sans-serif" font-size="14" font-weight="bold" lengthAdjust="spacingAndGlyphs" textLength="40" x="26" y="40.5332">Tetris</text><rect fill="#FEFECE" filter="url(#f1)" height="97.6953" style="stroke: #A80036; stroke-width: 1.5;" width="92" x="146" y="321"/><ellipse cx="163.7" cy="341.0938" fill="#A9DCDF" rx="11" ry="11" style="stroke: #A80036; stroke-width: 1.0;"/><path d="M165.8875,342.8594 L161.7469,342.8594 L161.325,343.8906 L161.7469,343.8906 Q162.3563,343.8906 162.6219,344.125 Q162.8875,344.3594 162.8875,344.75 Q162.8875,345.125 162.6219,345.3594 Q162.3563,345.5938 161.7469,345.5938 L159.45,345.5938 Q158.8406,345.5938 158.5828,345.3594 Q158.325,345.125 158.325,344.7344 Q158.325,344.3594 158.5984,344.1172 Q158.8719,343.875 159.4969,343.8906 L162.1688,337.2344 L161.0594,337.2344 Q160.45,337.2344 160.1844,337 Q159.9188,336.7656 159.9188,336.375 Q159.9188,336 160.1844,335.7656 Q160.45,335.5313 161.0594,335.5313 L164.7313,335.5313 L168.1219,343.8906 Q168.7156,343.8906 168.9031,344.0313 Q169.2938,344.2969 169.2938,344.75 Q169.2938,345.125 169.0359,345.3594 Q168.7781,345.5938 168.1688,345.5938 L165.8719,345.5938 Q165.2625,345.5938 164.9969,345.3594 Q164.7313,345.125 164.7313,344.7344 Q164.7313,344.3594 164.9969,344.125 Q165.2625,343.8906 165.8719,343.8906 L166.2938,343.8906 L165.8875,342.8594 Z M165.1688,341.1563 L163.8094,337.7813 L162.4344,341.1563 L165.1688,341.1563 Z "/><text fill="#000000" font-family="sans-serif" font-size="12" font-style="italic" lengthAdjust="spacingAndGlyphs" textLength="58" x="176.3" y="338.457">«abstract»</text><text fill="#000000" font-family="sans-serif" font-size="12" font-style="italic" lengthAdjust="spacingAndGlyphs" textLength="54" x="178.3" y="353.5508">Controller</text><line style="stroke: #A80036; stroke-width: 1.5;" x1="147" x2="237" y1="361.1875" y2="361.1875"/><polygon fill="none" points="157,368.6055,161,372.6055,157,376.6055,153,372.6055" style="stroke: #B38D22; stroke-width: 1.0;"/><text fill="#000000" font-family="sans-serif" font-size="11" lengthAdjust="spacingAndGlyphs" textLength="22" x="166" y="376.6064">conf</text><polygon fill="none" points="157,382.4414,161,386.4414,157,390.4414,153,386.4414" style="stroke: #B38D22; stroke-width: 1.0;"/><text fill="#000000" font-family="sans-serif" font-size="11" lengthAdjust="spacingAndGlyphs" textLength="20" x="166" y="390.4424">lang</text><line style="stroke: #A80036; stroke-width: 1.0;" x1="147" x2="237" y1="396.8594" y2="396.8594"/><ellipse cx="157" cy="409.2773" fill="#84BE84" rx="3" ry="3" style="stroke: #038048; stroke-width: 1.0;"/><text fill="#000000" font-family="sans-serif" font-size="11" lengthAdjust="spacingAndGlyphs" textLength="66" x="166" y="412.2783">__construct()</text><rect fill="#FEFECE" filter="url(#f1)" height="125.3672" style="stroke: #A80036; stroke-width: 1.5;" width="129" x="362.5" y="67"/><ellipse cx="377.5" cy="87.0938" fill="#ADD1B2" rx="11" ry="11" style="stroke: #A80036; stroke-width: 1.0;"/><path d="M380.2656,82.9688 Q380.4219,82.75 380.6094,82.6406 Q380.7969,82.5313 381.0156,82.5313 Q381.3906,82.5313 381.625,82.7891 Q381.8594,83.0469 381.8594,83.6563 L381.8594,85.1094 Q381.8594,85.7188 381.625,85.9844 Q381.3906,86.25 381.0156,86.25 Q380.6719,86.25 380.4688,86.0469 Q380.2656,85.8594 380.1563,85.3438 Q380.1094,84.9844 379.9219,84.7969 Q379.5938,84.4219 378.9844,84.2031 Q378.375,83.9844 377.75,83.9844 Q376.9844,83.9844 376.3516,84.3125 Q375.7188,84.6406 375.2266,85.3906 Q374.7344,86.1406 374.7344,87.1719 L374.7344,88.2656 Q374.7344,89.5 375.625,90.3203 Q376.5156,91.1406 378.1094,91.1406 Q379.0469,91.1406 379.7031,90.8906 Q380.0938,90.7344 380.5156,90.2969 Q380.7813,90.0313 380.9297,89.9531 Q381.0781,89.875 381.2813,89.875 Q381.6094,89.875 381.8672,90.1328 Q382.125,90.3906 382.125,90.7344 Q382.125,91.0781 381.7813,91.4844 Q381.2813,92.0625 380.4844,92.3906 Q379.4063,92.8438 378.1094,92.8438 Q376.5938,92.8438 375.3906,92.2188 Q374.4063,91.7188 373.7188,90.6484 Q373.0313,89.5781 373.0313,88.2969 L373.0313,87.1406 Q373.0313,85.8125 373.6484,84.6641 Q374.2656,83.5156 375.3594,82.8984 Q376.4531,82.2813 377.6875,82.2813 Q378.4219,82.2813 379.0703,82.4453 Q379.7188,82.6094 380.2656,82.9688 Z "/><text fill="#000000" font-family="sans-serif" font-size="12" font-style="italic" lengthAdjust="spacingAndGlyphs" textLength="42" x="419" y="84.457">«class»</text><text fill="#000000" font-family="sans-serif" font-size="12" lengthAdjust="spacingAndGlyphs" textLength="97" x="391.5" y="99.5508">HighscoreService</text><line style="stroke: #A80036; stroke-width: 1.5;" x1="363.5" x2="490.5" y1="107.1875" y2="107.1875"/><line style="stroke: #A80036; stroke-width: 1.5;" x1="363.5" x2="490.5" y1="115.1875" y2="115.1875"/><ellipse cx="373.5" cy="127.6055" fill="#84BE84" rx="3" ry="3" style="stroke: #038048; stroke-width: 1.0;"/><text fill="#000000" font-family="sans-serif" font-size="11" lengthAdjust="spacingAndGlyphs" text-decoration="underline" textLength="77" x="382.5" y="130.6064">readHighscores</text><line style="stroke: #000000; stroke-width: 1.0;" x1="382.5" x2="459.5" y1="132.6064" y2="132.6064"/><text fill="#000000" font-family="sans-serif" font-size="11" lengthAdjust="spacingAndGlyphs" textLength="8" x="459.5" y="130.6064">()</text><ellipse cx="373.5" cy="141.4414" fill="#84BE84" rx="3" ry="3" style="stroke: #038048; stroke-width: 1.0;"/><text fill="#000000" font-family="sans-serif" font-size="11" lengthAdjust="spacingAndGlyphs" text-decoration="underline" textLength="89" x="382.5" y="144.4424">requiredHighscore</text><line style="stroke: #000000; stroke-width: 1.0;" x1="382.5" x2="471.5" y1="146.4424" y2="146.4424"/><text fill="#000000" font-family="sans-serif" font-size="11" lengthAdjust="spacingAndGlyphs" textLength="8" x="471.5" y="144.4424">()</text><ellipse cx="373.5" cy="155.2773" fill="#84BE84" rx="3" ry="3" style="stroke: #038048; stroke-width: 1.0;"/><text fill="#000000" font-family="sans-serif" font-size="11" lengthAdjust="spacingAndGlyphs" text-decoration="underline" textLength="74" x="382.5" y="158.2783">enterHighscore</text><line style="stroke: #000000; stroke-width: 1.0;" x1="382.5" x2="456.5" y1="160.2783" y2="160.2783"/><text fill="#000000" font-family="sans-serif" font-size="11" lengthAdjust="spacingAndGlyphs" textLength="8" x="456.5" y="158.2783">()</text><rect fill="#F24D5C" height="6" style="stroke: #C82930; stroke-width: 1.0;" width="6" x="370.5" y="166.1133"/><text fill="#000000" font-family="sans-serif" font-size="11" lengthAdjust="spacingAndGlyphs" text-decoration="underline" textLength="80" x="382.5" y="172.1143">writeHighscores</text><line style="stroke: #000000; stroke-width: 1.0;" x1="382.5" x2="462.5" y1="174.1143" y2="174.1143"/><text fill="#000000" font-family="sans-serif" font-size="11" lengthAdjust="spacingAndGlyphs" textLength="8" x="462.5" y="172.1143">()</text><ellipse cx="373.5" cy="182.9492" fill="#84BE84" rx="3" ry="3" style="stroke: #038048; stroke-width: 1.0;"/><text fill="#000000" font-family="sans-serif" font-size="11" lengthAdjust="spacingAndGlyphs" text-decoration="underline" textLength="51" x="382.5" y="185.9502">dataFolder</text><line style="stroke: #000000; stroke-width: 1.0;" x1="382.5" x2="433.5" y1="187.9502" y2="187.9502"/><text fill="#000000" font-family="sans-serif" font-size="11" lengthAdjust="spacingAndGlyphs" textLength="8" x="433.5" y="185.9502">()</text><rect fill="#FEFECE" filter="url(#f1)" height="97.6953" style="stroke: #A80036; stroke-width: 1.5;" width="92" x="527" y="80.5"/><ellipse cx="542.9" cy="100.5938" fill="#ADD1B2" rx="11" ry="11" style="stroke: #A80036; stroke-width: 1.0;"/><path d="M545.6656,96.4688 Q545.8219,96.25 546.0094,96.1406 Q546.1969,96.0313 546.4156,96.0313 Q546.7906,96.0313 547.025,96.2891 Q547.2594,96.5469 547.2594,97.1563 L547.2594,98.6094 Q547.2594,99.2188 547.025,99.4844 Q546.7906,99.75 546.4156,99.75 Q546.0719,99.75 545.8688,99.5469 Q545.6656,99.3594 545.5563,98.8438 Q545.5094,98.4844 545.3219,98.2969 Q544.9938,97.9219 544.3844,97.7031 Q543.775,97.4844 543.15,97.4844 Q542.3844,97.4844 541.7516,97.8125 Q541.1188,98.1406 540.6266,98.8906 Q540.1344,99.6406 540.1344,100.6719 L540.1344,101.7656 Q540.1344,103 541.025,103.8203 Q541.9156,104.6406 543.5094,104.6406 Q544.4469,104.6406 545.1031,104.3906 Q545.4938,104.2344 545.9156,103.7969 Q546.1813,103.5313 546.3297,103.4531 Q546.4781,103.375 546.6813,103.375 Q547.0094,103.375 547.2672,103.6328 Q547.525,103.8906 547.525,104.2344 Q547.525,104.5781 547.1813,104.9844 Q546.6813,105.5625 545.8844,105.8906 Q544.8063,106.3438 543.5094,106.3438 Q541.9938,106.3438 540.7906,105.7188 Q539.8063,105.2188 539.1188,104.1484 Q538.4313,103.0781 538.4313,101.7969 L538.4313,100.6406 Q538.4313,99.3125 539.0484,98.1641 Q539.6656,97.0156 540.7594,96.3984 Q541.8531,95.7813 543.0875,95.7813 Q543.8219,95.7813 544.4703,95.9453 Q545.1188,96.1094 545.6656,96.4688 Z "/><text fill="#000000" font-family="sans-serif" font-size="12" font-style="italic" lengthAdjust="spacingAndGlyphs" textLength="42" x="565.1" y="97.957">«class»</text><text fill="#000000" font-family="sans-serif" font-size="12" lengthAdjust="spacingAndGlyphs" textLength="58" x="557.1" y="113.0508">HtmlString</text><line style="stroke: #A80036; stroke-width: 1.5;" x1="528" x2="618" y1="120.6875" y2="120.6875"/><rect fill="none" height="6" style="stroke: #C82930; stroke-width: 1.0;" width="6" x="535" y="130.1055"/><text fill="#000000" font-family="sans-serif" font-size="11" lengthAdjust="spacingAndGlyphs" textLength="26" x="547" y="136.1064">value</text><line style="stroke: #A80036; stroke-width: 1.0;" x1="528" x2="618" y1="142.5234" y2="142.5234"/><ellipse cx="538" cy="154.9414" fill="#84BE84" rx="3" ry="3" style="stroke: #038048; stroke-width: 1.0;"/><text fill="#000000" font-family="sans-serif" font-size="11" lengthAdjust="spacingAndGlyphs" textLength="66" x="547" y="157.9424">__construct()</text><ellipse cx="538" cy="168.7773" fill="#84BE84" rx="3" ry="3" style="stroke: #038048; stroke-width: 1.0;"/><text fill="#000000" font-family="sans-serif" font-size="11" lengthAdjust="spacingAndGlyphs" textLength="57" x="547" y="171.7783">__toString()</text><rect fill="#FEFECE" filter="url(#f1)" height="70.0234" style="stroke: #A80036; stroke-width: 1.5;" width="106" x="221" y="94.5"/><ellipse cx="236" cy="114.5938" fill="#ADD1B2" rx="11" ry="11" style="stroke: #A80036; stroke-width: 1.0;"/><path d="M238.7656,110.4688 Q238.9219,110.25 239.1094,110.1406 Q239.2969,110.0313 239.5156,110.0313 Q239.8906,110.0313 240.125,110.2891 Q240.3594,110.5469 240.3594,111.1563 L240.3594,112.6094 Q240.3594,113.2188 240.125,113.4844 Q239.8906,113.75 239.5156,113.75 Q239.1719,113.75 238.9688,113.5469 Q238.7656,113.3594 238.6563,112.8438 Q238.6094,112.4844 238.4219,112.2969 Q238.0938,111.9219 237.4844,111.7031 Q236.875,111.4844 236.25,111.4844 Q235.4844,111.4844 234.8516,111.8125 Q234.2188,112.1406 233.7266,112.8906 Q233.2344,113.6406 233.2344,114.6719 L233.2344,115.7656 Q233.2344,117 234.125,117.8203 Q235.0156,118.6406 236.6094,118.6406 Q237.5469,118.6406 238.2031,118.3906 Q238.5938,118.2344 239.0156,117.7969 Q239.2813,117.5313 239.4297,117.4531 Q239.5781,117.375 239.7813,117.375 Q240.1094,117.375 240.3672,117.6328 Q240.625,117.8906 240.625,118.2344 Q240.625,118.5781 240.2813,118.9844 Q239.7813,119.5625 238.9844,119.8906 Q237.9063,120.3438 236.6094,120.3438 Q235.0938,120.3438 233.8906,119.7188 Q232.9063,119.2188 232.2188,118.1484 Q231.5313,117.0781 231.5313,115.7969 L231.5313,114.6406 Q231.5313,113.3125 232.1484,112.1641 Q232.7656,111.0156 233.8594,110.3984 Q234.9531,109.7813 236.1875,109.7813 Q236.9219,109.7813 237.5703,109.9453 Q238.2188,110.1094 238.7656,110.4688 Z "/><text fill="#000000" font-family="sans-serif" font-size="12" font-style="italic" lengthAdjust="spacingAndGlyphs" textLength="42" x="266" y="111.957">«class»</text><text fill="#000000" font-family="sans-serif" font-size="12" lengthAdjust="spacingAndGlyphs" textLength="74" x="250" y="127.0508">InfoController</text><line style="stroke: #A80036; stroke-width: 1.5;" x1="222" x2="326" y1="134.6875" y2="134.6875"/><line style="stroke: #A80036; stroke-width: 1.5;" x1="222" x2="326" y1="142.6875" y2="142.6875"/><ellipse cx="232" cy="155.1055" fill="#84BE84" rx="3" ry="3" style="stroke: #038048; stroke-width: 1.0;"/><text fill="#000000" font-family="sans-serif" font-size="11" lengthAdjust="spacingAndGlyphs" textLength="72" x="241" y="158.1064">defaultAction()</text><rect fill="#FEFECE" filter="url(#f1)" height="139.2031" style="stroke: #A80036; stroke-width: 1.5;" width="148" x="38" y="60"/><ellipse cx="69.2" cy="80.0938" fill="#ADD1B2" rx="11" ry="11" style="stroke: #A80036; stroke-width: 1.0;"/><path d="M71.9656,75.9688 Q72.1219,75.75 72.3094,75.6406 Q72.4969,75.5313 72.7156,75.5313 Q73.0906,75.5313 73.325,75.7891 Q73.5594,76.0469 73.5594,76.6563 L73.5594,78.1094 Q73.5594,78.7188 73.325,78.9844 Q73.0906,79.25 72.7156,79.25 Q72.3719,79.25 72.1688,79.0469 Q71.9656,78.8594 71.8563,78.3438 Q71.8094,77.9844 71.6219,77.7969 Q71.2938,77.4219 70.6844,77.2031 Q70.075,76.9844 69.45,76.9844 Q68.6844,76.9844 68.0516,77.3125 Q67.4188,77.6406 66.9266,78.3906 Q66.4344,79.1406 66.4344,80.1719 L66.4344,81.2656 Q66.4344,82.5 67.325,83.3203 Q68.2156,84.1406 69.8094,84.1406 Q70.7469,84.1406 71.4031,83.8906 Q71.7938,83.7344 72.2156,83.2969 Q72.4813,83.0313 72.6297,82.9531 Q72.7781,82.875 72.9813,82.875 Q73.3094,82.875 73.5672,83.1328 Q73.825,83.3906 73.825,83.7344 Q73.825,84.0781 73.4813,84.4844 Q72.9813,85.0625 72.1844,85.3906 Q71.1063,85.8438 69.8094,85.8438 Q68.2938,85.8438 67.0906,85.2188 Q66.1063,84.7188 65.4188,83.6484 Q64.7313,82.5781 64.7313,81.2969 L64.7313,80.1406 Q64.7313,78.8125 65.3484,77.6641 Q65.9656,76.5156 67.0594,75.8984 Q68.1531,75.2813 69.3875,75.2813 Q70.1219,75.2813 70.7703,75.4453 Q71.4188,75.6094 71.9656,75.9688 Z "/><text fill="#000000" font-family="sans-serif" font-size="12" font-style="italic" lengthAdjust="spacingAndGlyphs" textLength="42" x="105.8" y="77.457">«class»</text><text fill="#000000" font-family="sans-serif" font-size="12" lengthAdjust="spacingAndGlyphs" textLength="80" x="86.8" y="92.5508">MainController</text><line style="stroke: #A80036; stroke-width: 1.5;" x1="39" x2="185" y1="100.1875" y2="100.1875"/><line style="stroke: #A80036; stroke-width: 1.5;" x1="39" x2="185" y1="108.1875" y2="108.1875"/><ellipse cx="49" cy="120.6055" fill="#84BE84" rx="3" ry="3" style="stroke: #038048; stroke-width: 1.0;"/><text fill="#000000" font-family="sans-serif" font-size="11" lengthAdjust="spacingAndGlyphs" textLength="72" x="58" y="123.6064">defaultAction()</text><rect fill="#F24D5C" height="6" style="stroke: #C82930; stroke-width: 1.0;" width="6" x="46" y="131.4414"/><text fill="#000000" font-family="sans-serif" font-size="11" lengthAdjust="spacingAndGlyphs" textLength="48" x="58" y="137.4424">headers()</text><rect fill="#F24D5C" height="6" style="stroke: #C82930; stroke-width: 1.0;" width="6" x="46" y="145.2773"/><text fill="#000000" font-family="sans-serif" font-size="11" lengthAdjust="spacingAndGlyphs" textLength="40" x="58" y="151.2783">langJS()</text><ellipse cx="49" cy="162.1133" fill="#84BE84" rx="3" ry="3" style="stroke: #038048; stroke-width: 1.0;"/><text fill="#000000" font-family="sans-serif" font-size="11" lengthAdjust="spacingAndGlyphs" textLength="103" x="58" y="165.1143">getHighscoreAction()</text><ellipse cx="49" cy="175.9492" fill="#84BE84" rx="3" ry="3" style="stroke: #038048; stroke-width: 1.0;"/><text fill="#000000" font-family="sans-serif" font-size="11" lengthAdjust="spacingAndGlyphs" textLength="122" x="58" y="178.9502">showHighscoresAction()</text><ellipse cx="49" cy="189.7852" fill="#84BE84" rx="3" ry="3" style="stroke: #038048; stroke-width: 1.0;"/><text fill="#000000" font-family="sans-serif" font-size="11" lengthAdjust="spacingAndGlyphs" textLength="110" x="58" y="192.7861">newHighscoreAction()</text><rect fill="#FEFECE" filter="url(#f1)" height="83.8594" style="stroke: #A80036; stroke-width: 1.5;" width="71" x="654.5" y="87.5"/><ellipse cx="669.95" cy="107.5938" fill="#ADD1B2" rx="11" ry="11" style="stroke: #A80036; stroke-width: 1.0;"/><path d="M672.7156,103.4688 Q672.8719,103.25 673.0594,103.1406 Q673.2469,103.0313 673.4656,103.0313 Q673.8406,103.0313 674.075,103.2891 Q674.3094,103.5469 674.3094,104.1563 L674.3094,105.6094 Q674.3094,106.2188 674.075,106.4844 Q673.8406,106.75 673.4656,106.75 Q673.1219,106.75 672.9188,106.5469 Q672.7156,106.3594 672.6063,105.8438 Q672.5594,105.4844 672.3719,105.2969 Q672.0438,104.9219 671.4344,104.7031 Q670.825,104.4844 670.2,104.4844 Q669.4344,104.4844 668.8016,104.8125 Q668.1688,105.1406 667.6766,105.8906 Q667.1844,106.6406 667.1844,107.6719 L667.1844,108.7656 Q667.1844,110 668.075,110.8203 Q668.9656,111.6406 670.5594,111.6406 Q671.4969,111.6406 672.1531,111.3906 Q672.5438,111.2344 672.9656,110.7969 Q673.2313,110.5313 673.3797,110.4531 Q673.5281,110.375 673.7313,110.375 Q674.0594,110.375 674.3172,110.6328 Q674.575,110.8906 674.575,111.2344 Q674.575,111.5781 674.2313,111.9844 Q673.7313,112.5625 672.9344,112.8906 Q671.8563,113.3438 670.5594,113.3438 Q669.0438,113.3438 667.8406,112.7188 Q666.8563,112.2188 666.1688,111.1484 Q665.4813,110.0781 665.4813,108.7969 L665.4813,107.6406 Q665.4813,106.3125 666.0984,105.1641 Q666.7156,104.0156 667.8094,103.3984 Q668.9031,102.7813 670.1375,102.7813 Q670.8719,102.7813 671.5203,102.9453 Q672.1688,103.1094 672.7156,103.4688 Z "/><text fill="#000000" font-family="sans-serif" font-size="12" font-style="italic" lengthAdjust="spacingAndGlyphs" textLength="42" x="682.05" y="104.957">«class»</text><text fill="#000000" font-family="sans-serif" font-size="12" lengthAdjust="spacingAndGlyphs" textLength="35" x="685.55" y="120.0508">Plugin</text><line style="stroke: #A80036; stroke-width: 1.5;" x1="655.5" x2="724.5" y1="127.6875" y2="127.6875"/><ellipse cx="665.5" cy="140.1055" fill="none" rx="3" ry="3" style="stroke: #038048; stroke-width: 1.0;"/><text fill="#000000" font-family="sans-serif" font-size="11" lengthAdjust="spacingAndGlyphs" textLength="45" x="674.5" y="143.1064">VERSION</text><line style="stroke: #A80036; stroke-width: 1.0;" x1="655.5" x2="724.5" y1="149.5234" y2="149.5234"/><ellipse cx="665.5" cy="161.9414" fill="#84BE84" rx="3" ry="3" style="stroke: #038048; stroke-width: 1.0;"/><text fill="#000000" font-family="sans-serif" font-size="11" lengthAdjust="spacingAndGlyphs" textLength="24" x="674.5" y="164.9424">run()</text><rect fill="#FEFECE" filter="url(#f1)" height="180.7109" style="stroke: #A80036; stroke-width: 1.5;" width="148" x="353" y="279.5"/><ellipse cx="368" cy="299.5938" fill="#ADD1B2" rx="11" ry="11" style="stroke: #A80036; stroke-width: 1.0;"/><path d="M370.7656,295.4688 Q370.9219,295.25 371.1094,295.1406 Q371.2969,295.0313 371.5156,295.0313 Q371.8906,295.0313 372.125,295.2891 Q372.3594,295.5469 372.3594,296.1563 L372.3594,297.6094 Q372.3594,298.2188 372.125,298.4844 Q371.8906,298.75 371.5156,298.75 Q371.1719,298.75 370.9688,298.5469 Q370.7656,298.3594 370.6563,297.8438 Q370.6094,297.4844 370.4219,297.2969 Q370.0938,296.9219 369.4844,296.7031 Q368.875,296.4844 368.25,296.4844 Q367.4844,296.4844 366.8516,296.8125 Q366.2188,297.1406 365.7266,297.8906 Q365.2344,298.6406 365.2344,299.6719 L365.2344,300.7656 Q365.2344,302 366.125,302.8203 Q367.0156,303.6406 368.6094,303.6406 Q369.5469,303.6406 370.2031,303.3906 Q370.5938,303.2344 371.0156,302.7969 Q371.2813,302.5313 371.4297,302.4531 Q371.5781,302.375 371.7813,302.375 Q372.1094,302.375 372.3672,302.6328 Q372.625,302.8906 372.625,303.2344 Q372.625,303.5781 372.2813,303.9844 Q371.7813,304.5625 370.9844,304.8906 Q369.9063,305.3438 368.6094,305.3438 Q367.0938,305.3438 365.8906,304.7188 Q364.9063,304.2188 364.2188,303.1484 Q363.5313,302.0781 363.5313,300.7969 L363.5313,299.6406 Q363.5313,298.3125 364.1484,297.1641 Q364.7656,296.0156 365.8594,295.3984 Q366.9531,294.7813 368.1875,294.7813 Q368.9219,294.7813 369.5703,294.9453 Q370.2188,295.1094 370.7656,295.4688 Z "/><text fill="#000000" font-family="sans-serif" font-size="12" font-style="italic" lengthAdjust="spacingAndGlyphs" textLength="42" x="419" y="296.957">«class»</text><text fill="#000000" font-family="sans-serif" font-size="12" lengthAdjust="spacingAndGlyphs" textLength="116" x="382" y="312.0508">SystemCheckService</text><line style="stroke: #A80036; stroke-width: 1.5;" x1="354" x2="500" y1="319.6875" y2="319.6875"/><rect fill="none" height="6" style="stroke: #C82930; stroke-width: 1.0;" width="6" x="361" y="329.1055"/><text fill="#000000" font-family="sans-serif" font-size="11" lengthAdjust="spacingAndGlyphs" textLength="58" x="373" y="335.1064">pluginFolder</text><rect fill="none" height="6" style="stroke: #C82930; stroke-width: 1.0;" width="6" x="361" y="342.9414"/><text fill="#000000" font-family="sans-serif" font-size="11" lengthAdjust="spacingAndGlyphs" textLength="20" x="373" y="348.9424">lang</text><line style="stroke: #A80036; stroke-width: 1.0;" x1="354" x2="500" y1="355.3594" y2="355.3594"/><ellipse cx="364" cy="367.7773" fill="#84BE84" rx="3" ry="3" style="stroke: #038048; stroke-width: 1.0;"/><text fill="#000000" font-family="sans-serif" font-size="11" lengthAdjust="spacingAndGlyphs" textLength="66" x="373" y="370.7783">__construct()</text><ellipse cx="364" cy="381.6133" fill="#84BE84" rx="3" ry="3" style="stroke: #038048; stroke-width: 1.0;"/><text fill="#000000" font-family="sans-serif" font-size="11" lengthAdjust="spacingAndGlyphs" textLength="59" x="373" y="384.6143">getChecks()</text><rect fill="#F24D5C" height="6" style="stroke: #C82930; stroke-width: 1.0;" width="6" x="361" y="392.4492"/><text fill="#000000" font-family="sans-serif" font-size="11" lengthAdjust="spacingAndGlyphs" textLength="93" x="373" y="398.4502">checkPhpVersion()</text><rect fill="#F24D5C" height="6" style="stroke: #C82930; stroke-width: 1.0;" width="6" x="361" y="406.2852"/><text fill="#000000" font-family="sans-serif" font-size="11" lengthAdjust="spacingAndGlyphs" textLength="84" x="373" y="412.2861">checkExtension()</text><rect fill="#F24D5C" height="6" style="stroke: #C82930; stroke-width: 1.0;" width="6" x="361" y="420.1211"/><text fill="#000000" font-family="sans-serif" font-size="11" lengthAdjust="spacingAndGlyphs" textLength="88" x="373" y="426.1221">checkXhVersion()</text><rect fill="#F24D5C" height="6" style="stroke: #C82930; stroke-width: 1.0;" width="6" x="361" y="433.957"/><text fill="#000000" font-family="sans-serif" font-size="11" lengthAdjust="spacingAndGlyphs" textLength="65" x="373" y="439.958">checkPlugin()</text><rect fill="#F24D5C" height="6" style="stroke: #C82930; stroke-width: 1.0;" width="6" x="361" y="447.793"/><text fill="#000000" font-family="sans-serif" font-size="11" lengthAdjust="spacingAndGlyphs" textLength="83" x="373" y="453.7939">checkWritability()</text><rect fill="#FEFECE" filter="url(#f1)" height="222.2188" style="stroke: #A80036; stroke-width: 1.5;" width="92" x="536" y="259"/><ellipse cx="560.9" cy="279.0938" fill="#ADD1B2" rx="11" ry="11" style="stroke: #A80036; stroke-width: 1.0;"/><path d="M563.6656,274.9688 Q563.8219,274.75 564.0094,274.6406 Q564.1969,274.5313 564.4156,274.5313 Q564.7906,274.5313 565.025,274.7891 Q565.2594,275.0469 565.2594,275.6563 L565.2594,277.1094 Q565.2594,277.7188 565.025,277.9844 Q564.7906,278.25 564.4156,278.25 Q564.0719,278.25 563.8688,278.0469 Q563.6656,277.8594 563.5563,277.3438 Q563.5094,276.9844 563.3219,276.7969 Q562.9938,276.4219 562.3844,276.2031 Q561.775,275.9844 561.15,275.9844 Q560.3844,275.9844 559.7516,276.3125 Q559.1188,276.6406 558.6266,277.3906 Q558.1344,278.1406 558.1344,279.1719 L558.1344,280.2656 Q558.1344,281.5 559.025,282.3203 Q559.9156,283.1406 561.5094,283.1406 Q562.4469,283.1406 563.1031,282.8906 Q563.4938,282.7344 563.9156,282.2969 Q564.1813,282.0313 564.3297,281.9531 Q564.4781,281.875 564.6813,281.875 Q565.0094,281.875 565.2672,282.1328 Q565.525,282.3906 565.525,282.7344 Q565.525,283.0781 565.1813,283.4844 Q564.6813,284.0625 563.8844,284.3906 Q562.8063,284.8438 561.5094,284.8438 Q559.9938,284.8438 558.7906,284.2188 Q557.8063,283.7188 557.1188,282.6484 Q556.4313,281.5781 556.4313,280.2969 L556.4313,279.1406 Q556.4313,277.8125 557.0484,276.6641 Q557.6656,275.5156 558.7594,274.8984 Q559.8531,274.2813 561.0875,274.2813 Q561.8219,274.2813 562.4703,274.4453 Q563.1188,274.6094 563.6656,274.9688 Z "/><text fill="#000000" font-family="sans-serif" font-size="12" font-style="italic" lengthAdjust="spacingAndGlyphs" textLength="42" x="575.1" y="276.457">«class»</text><text fill="#000000" font-family="sans-serif" font-size="12" lengthAdjust="spacingAndGlyphs" textLength="26" x="583.1" y="291.5508">View</text><line style="stroke: #A80036; stroke-width: 1.5;" x1="537" x2="627" y1="299.1875" y2="299.1875"/><rect fill="none" height="6" style="stroke: #C82930; stroke-width: 1.0;" width="6" x="544" y="308.6055"/><text fill="#000000" font-family="sans-serif" font-size="11" lengthAdjust="spacingAndGlyphs" textLength="40" x="556" y="314.6064">template</text><rect fill="none" height="6" style="stroke: #C82930; stroke-width: 1.0;" width="6" x="544" y="322.4414"/><text fill="#000000" font-family="sans-serif" font-size="11" lengthAdjust="spacingAndGlyphs" textLength="21" x="556" y="328.4424">data</text><line style="stroke: #A80036; stroke-width: 1.0;" x1="537" x2="627" y1="334.8594" y2="334.8594"/><ellipse cx="547" cy="347.2773" fill="#84BE84" rx="3" ry="3" style="stroke: #038048; stroke-width: 1.0;"/><text fill="#000000" font-family="sans-serif" font-size="11" lengthAdjust="spacingAndGlyphs" textLength="66" x="556" y="350.2783">__construct()</text><ellipse cx="547" cy="361.1133" fill="#84BE84" rx="3" ry="3" style="stroke: #038048; stroke-width: 1.0;"/><text fill="#000000" font-family="sans-serif" font-size="11" lengthAdjust="spacingAndGlyphs" textLength="35" x="556" y="364.1143">__set()</text><ellipse cx="547" cy="374.9492" fill="#84BE84" rx="3" ry="3" style="stroke: #038048; stroke-width: 1.0;"/><text fill="#000000" font-family="sans-serif" font-size="11" lengthAdjust="spacingAndGlyphs" textLength="35" x="556" y="377.9502">__get()</text><ellipse cx="547" cy="388.7852" fill="#84BE84" rx="3" ry="3" style="stroke: #038048; stroke-width: 1.0;"/><text fill="#000000" font-family="sans-serif" font-size="11" lengthAdjust="spacingAndGlyphs" textLength="43" x="556" y="391.7861">__isset()</text><ellipse cx="547" cy="402.6211" fill="#84BE84" rx="3" ry="3" style="stroke: #038048; stroke-width: 1.0;"/><text fill="#000000" font-family="sans-serif" font-size="11" lengthAdjust="spacingAndGlyphs" textLength="36" x="556" y="405.6221">__call()</text><ellipse cx="547" cy="416.457" fill="#84BE84" rx="3" ry="3" style="stroke: #038048; stroke-width: 1.0;"/><text fill="#000000" font-family="sans-serif" font-size="11" lengthAdjust="spacingAndGlyphs" textLength="57" x="556" y="419.458">__toString()</text><polygon fill="#FFFF44" points="547,425.293,551,429.293,547,433.293,543,429.293" style="stroke: #B38D22; stroke-width: 1.0;"/><text fill="#000000" font-family="sans-serif" font-size="11" lengthAdjust="spacingAndGlyphs" textLength="26" x="556" y="433.2939">text()</text><polygon fill="#FFFF44" points="547,439.1289,551,443.1289,547,447.1289,543,443.1289" style="stroke: #B38D22; stroke-width: 1.0;"/><text fill="#000000" font-family="sans-serif" font-size="11" lengthAdjust="spacingAndGlyphs" textLength="34" x="556" y="447.1299">plural()</text><ellipse cx="547" cy="457.9648" fill="#84BE84" rx="3" ry="3" style="stroke: #038048; stroke-width: 1.0;"/><text fill="#000000" font-family="sans-serif" font-size="11" lengthAdjust="spacingAndGlyphs" textLength="40" x="556" y="460.9658">render()</text><polygon fill="#FFFF44" points="547,466.8008,551,470.8008,547,474.8008,543,470.8008" style="stroke: #B38D22; stroke-width: 1.0;"/><text fill="#000000" font-family="sans-serif" font-size="11" lengthAdjust="spacingAndGlyphs" textLength="44" x="556" y="474.8018">escape()</text><path d="M262.251,164.671 C249.984,200.351 230.427,257.233 215.059,301.931 " fill="none" style="stroke: #A80036; stroke-width: 1.0;"/><polygon fill="none" points="221.672,304.229,208.549,320.866,208.432,299.677,221.672,304.229" style="stroke: #A80036; stroke-width: 1.0;"/><path d="M135.032,199.164 C145.85,231.415 158.7,269.725 169.456,301.79 " fill="none" style="stroke: #A80036; stroke-width: 1.0;"/><polygon fill="none" points="176.121,299.651,175.845,320.839,162.848,304.103,176.121,299.651" style="stroke: #A80036; stroke-width: 1.0;"/></g></svg>