<?xml version="1.0" encoding="UTF-8" standalone="yes"?><svg xmlns="http://www.w3.org/2000/svg" xmlns:xlink="http://www.w3.org/1999/xlink" height="532px" style="width:459px;height:532px;" version="1.1" viewBox="0 0 459 532" width="459px"><defs><filter height="300%" id="f1" width="300%" x="-1" y="-1"><feGaussianBlur result="blurOut" stdDeviation="2.0"/><feColorMatrix in="blurOut" result="blurOut2" type="matrix" values="0 0 0 0 0 0 0 0 0 0 0 0 0 0 0 0 0 0 .4 0"/><feOffset dx="4.0" dy="4.0" in="blurOut2" result="blurOut3"/><feBlend in="SourceGraphic" in2="blurOut3" mode="normal"/></filter></defs><g><polygon fill="#FFFFFF" filter="url(#f1)" points="22,24,68,24,75,47.6094,452,47.6094,452,525,22,525,22,24" style="stroke: #000000; stroke-width: 2.0;"/><line style="stroke: #000000; stroke-width: 2.0;" x1="22" x2="75" y1="47.6094" y2="47.6094"/><text fill="#000000" font-family="sans-serif" font-size="14" font-weight="bold" lengthAdjust="spacingAndGlyphs" textLength="40" x="26" y="40.5332">Tetris</text><rect fill="#FEFECE" filter="url(#f1)" height="125.3672" style="stroke: #A80036; stroke-width: 1.5;" width="129" x="38.5" y="81"/><ellipse cx="53.5" cy="101.0938" fill="#ADD1B2" rx="11" ry="11" style="stroke: #A80036; stroke-width: 1.0;"/><path d="M56.2656,96.9688 Q56.4219,96.75 56.6094,96.6406 Q56.7969,96.5313 57.0156,96.5313 Q57.3906,96.5313 57.625,96.7891 Q57.8594,97.0469 57.8594,97.6563 L57.8594,99.1094 Q57.8594,99.7188 57.625,99.9844 Q57.3906,100.25 57.0156,100.25 Q56.6719,100.25 56.4688,100.0469 Q56.2656,99.8594 56.1563,99.3438 Q56.1094,98.9844 55.9219,98.7969 Q55.5938,98.4219 54.9844,98.2031 Q54.375,97.9844 53.75,97.9844 Q52.9844,97.9844 52.3516,98.3125 Q51.7188,98.6406 51.2266,99.3906 Q50.7344,100.1406 50.7344,101.1719 L50.7344,102.2656 Q50.7344,103.5 51.625,104.3203 Q52.5156,105.1406 54.1094,105.1406 Q55.0469,105.1406 55.7031,104.8906 Q56.0938,104.7344 56.5156,104.2969 Q56.7813,104.0313 56.9297,103.9531 Q57.0781,103.875 57.2813,103.875 Q57.6094,103.875 57.8672,104.1328 Q58.125,104.3906 58.125,104.7344 Q58.125,105.0781 57.7813,105.4844 Q57.2813,106.0625 56.4844,106.3906 Q55.4063,106.8438 54.1094,106.8438 Q52.5938,106.8438 51.3906,106.2188 Q50.4063,105.7188 49.7188,104.6484 Q49.0313,103.5781 49.0313,102.2969 L49.0313,101.1406 Q49.0313,99.8125 49.6484,98.6641 Q50.2656,97.5156 51.3594,96.8984 Q52.4531,96.2813 53.6875,96.2813 Q54.4219,96.2813 55.0703,96.4453 Q55.7188,96.6094 56.2656,96.9688 Z "/><text fill="#000000" font-family="sans-serif" font-size="12" font-style="italic" lengthAdjust="spacingAndGlyphs" textLength="42" x="95" y="98.457">«class»</text><text fill="#000000" font-family="sans-serif" font-size="12" lengthAdjust="spacingAndGlyphs" textLength="97" x="67.5" y="113.5508">HighscoreService</text><line style="stroke: #A80036; stroke-width: 1.5;" x1="39.5" x2="166.5" y1="121.1875" y2="121.1875"/><line style="stroke: #A80036; stroke-width: 1.5;" x1="39.5" x2="166.5" y1="129.1875" y2="129.1875"/><ellipse cx="49.5" cy="141.6055" fill="#84BE84" rx="3" ry="3" style="stroke: #038048; stroke-width: 1.0;"/><text fill="#000000" font-family="sans-serif" font-size="11" lengthAdjust="spacingAndGlyphs" text-decoration="underline" textLength="77" x="58.5" y="144.6064">readHighscores</text><line style="stroke: #000000; stroke-width: 1.0;" x1="58.5" x2="135.5" y1="146.6064" y2="146.6064"/><text fill="#000000" font-family="sans-serif" font-size="11" lengthAdjust="spacingAndGlyphs" textLength="8" x="135.5" y="144.6064">()</text><ellipse cx="49.5" cy="155.4414" fill="#84BE84" rx="3" ry="3" style="stroke: #038048; stroke-width: 1.0;"/><text fill="#000000" font-family="sans-serif" font-size="11" lengthAdjust="spacingAndGlyphs" text-decoration="underline" textLength="89" x="58.5" y="158.4424">requiredHighscore</text><line style="stroke: #000000; stroke-width: 1.0;" x1="58.5" x2="147.5" y1="160.4424" y2="160.4424"/><text fill="#000000" font-family="sans-serif" font-size="11" lengthAdjust="spacingAndGlyphs" textLength="8" x="147.5" y="158.4424">()</text><ellipse cx="49.5" cy="169.2773" fill="#84BE84" rx="3" ry="3" style="stroke: #038048; stroke-width: 1.0;"/><text fill="#000000" font-family="sans-serif" font-size="11" lengthAdjust="spacingAndGlyphs" text-decoration="underline" textLength="74" x="58.5" y="172.2783">enterHighscore</text><line style="stroke: #000000; stroke-width: 1.0;" x1="58.5" x2="132.5" y1="174.2783" y2="174.2783"/><text fill="#000000" font-family="sans-serif" font-size="11" lengthAdjust="spacingAndGlyphs" textLength="8" x="132.5" y="172.2783">()</text><rect fill="#F24D5C" height="6" style="stroke: #C82930; stroke-width: 1.0;" width="6" x="46.5" y="180.1133"/><text fill="#000000" font-family="sans-serif" font-size="11" lengthAdjust="spacingAndGlyphs" text-decoration="underline" textLength="80" x="58.5" y="186.1143">writeHighscores</text><line style="stroke: #000000; stroke-width: 1.0;" x1="58.5" x2="138.5" y1="188.1143" y2="188.1143"/><text fill="#000000" font-family="sans-serif" font-size="11" lengthAdjust="spacingAndGlyphs" textLength="8" x="138.5" y="186.1143">()</text><ellipse cx="49.5" cy="196.9492" fill="#84BE84" rx="3" ry="3" style="stroke: #038048; stroke-width: 1.0;"/><text fill="#000000" font-family="sans-serif" font-size="11" lengthAdjust="spacingAndGlyphs" text-decoration="underline" textLength="51" x="58.5" y="199.9502">dataFolder</text><line style="stroke: #000000; stroke-width: 1.0;" x1="58.5" x2="109.5" y1="201.9502" y2="201.9502"/><text fill="#000000" font-family="sans-serif" font-size="11" lengthAdjust="spacingAndGlyphs" textLength="8" x="109.5" y="199.9502">()</text><rect fill="#FEFECE" filter="url(#f1)" height="97.6953" style="stroke: #A80036; stroke-width: 1.5;" width="92" x="203" y="94.5"/><ellipse cx="218.9" cy="114.5938" fill="#ADD1B2" rx="11" ry="11" style="stroke: #A80036; stroke-width: 1.0;"/><path d="M221.6656,110.4688 Q221.8219,110.25 222.0094,110.1406 Q222.1969,110.0313 222.4156,110.0313 Q222.7906,110.0313 223.025,110.2891 Q223.2594,110.5469 223.2594,111.1563 L223.2594,112.6094 Q223.2594,113.2188 223.025,113.4844 Q222.7906,113.75 222.4156,113.75 Q222.0719,113.75 221.8688,113.5469 Q221.6656,113.3594 221.5563,112.8438 Q221.5094,112.4844 221.3219,112.2969 Q220.9938,111.9219 220.3844,111.7031 Q219.775,111.4844 219.15,111.4844 Q218.3844,111.4844 217.7516,111.8125 Q217.1188,112.1406 216.6266,112.8906 Q216.1344,113.6406 216.1344,114.6719 L216.1344,115.7656 Q216.1344,117 217.025,117.8203 Q217.9156,118.6406 219.5094,118.6406 Q220.4469,118.6406 221.1031,118.3906 Q221.4938,118.2344 221.9156,117.7969 Q222.1813,117.5313 222.3297,117.4531 Q222.4781,117.375 222.6813,117.375 Q223.0094,117.375 223.2672,117.6328 Q223.525,117.8906 223.525,118.2344 Q223.525,118.5781 223.1813,118.9844 Q222.6813,119.5625 221.8844,119.8906 Q220.8063,120.3438 219.5094,120.3438 Q217.9938,120.3438 216.7906,119.7188 Q215.8063,119.2188 215.1188,118.1484 Q214.4313,117.0781 214.4313,115.7969 L214.4313,114.6406 Q214.4313,113.3125 215.0484,112.1641 Q215.6656,111.0156 216.7594,110.3984 Q217.8531,109.7813 219.0875,109.7813 Q219.8219,109.7813 220.4703,109.9453 Q221.1188,110.1094 221.6656,110.4688 Z "/><text fill="#000000" font-family="sans-serif" font-size="12" font-style="italic" lengthAdjust="spacingAndGlyphs" textLength="42" x="241.1" y="111.957">«class»</text><text fill="#000000" font-family="sans-serif" font-size="12" lengthAdjust="spacingAndGlyphs" textLength="58" x="233.1" y="127.0508">HtmlString</text><line style="stroke: #A80036; stroke-width: 1.5;" x1="204" x2="294" y1="134.6875" y2="134.6875"/><rect fill="none" height="6" style="stroke: #C82930; stroke-width: 1.0;" width="6" x="211" y="144.1055"/><text fill="#000000" font-family="sans-serif" font-size="11" lengthAdjust="spacingAndGlyphs" textLength="26" x="223" y="150.1064">value</text><line style="stroke: #A80036; stroke-width: 1.0;" x1="204" x2="294" y1="156.5234" y2="156.5234"/><ellipse cx="214" cy="168.9414" fill="#84BE84" rx="3" ry="3" style="stroke: #038048; stroke-width: 1.0;"/><text fill="#000000" font-family="sans-serif" font-size="11" lengthAdjust="spacingAndGlyphs" textLength="66" x="223" y="171.9424">__construct()</text><ellipse cx="214" cy="182.7773" fill="#84BE84" rx="3" ry="3" style="stroke: #038048; stroke-width: 1.0;"/><text fill="#000000" font-family="sans-serif" font-size="11" lengthAdjust="spacingAndGlyphs" textLength="57" x="223" y="185.7783">__toString()</text><rect fill="#FEFECE" filter="url(#f1)" height="166.875" style="stroke: #A80036; stroke-width: 1.5;" width="105" x="330.5" y="60"/><ellipse cx="361.25" cy="80.0938" fill="#ADD1B2" rx="11" ry="11" style="stroke: #A80036; stroke-width: 1.0;"/><path d="M364.0156,75.9688 Q364.1719,75.75 364.3594,75.6406 Q364.5469,75.5313 364.7656,75.5313 Q365.1406,75.5313 365.375,75.7891 Q365.6094,76.0469 365.6094,76.6563 L365.6094,78.1094 Q365.6094,78.7188 365.375,78.9844 Q365.1406,79.25 364.7656,79.25 Q364.4219,79.25 364.2188,79.0469 Q364.0156,78.8594 363.9063,78.3438 Q363.8594,77.9844 363.6719,77.7969 Q363.3438,77.4219 362.7344,77.2031 Q362.125,76.9844 361.5,76.9844 Q360.7344,76.9844 360.1016,77.3125 Q359.4688,77.6406 358.9766,78.3906 Q358.4844,79.1406 358.4844,80.1719 L358.4844,81.2656 Q358.4844,82.5 359.375,83.3203 Q360.2656,84.1406 361.8594,84.1406 Q362.7969,84.1406 363.4531,83.8906 Q363.8438,83.7344 364.2656,83.2969 Q364.5313,83.0313 364.6797,82.9531 Q364.8281,82.875 365.0313,82.875 Q365.3594,82.875 365.6172,83.1328 Q365.875,83.3906 365.875,83.7344 Q365.875,84.0781 365.5313,84.4844 Q365.0313,85.0625 364.2344,85.3906 Q363.1563,85.8438 361.8594,85.8438 Q360.3438,85.8438 359.1406,85.2188 Q358.1563,84.7188 357.4688,83.6484 Q356.7813,82.5781 356.7813,81.2969 L356.7813,80.1406 Q356.7813,78.8125 357.3984,77.6641 Q358.0156,76.5156 359.1094,75.8984 Q360.2031,75.2813 361.4375,75.2813 Q362.1719,75.2813 362.8203,75.4453 Q363.4688,75.6094 364.0156,75.9688 Z "/><text fill="#000000" font-family="sans-serif" font-size="12" font-style="italic" lengthAdjust="spacingAndGlyphs" textLength="42" x="376.75" y="77.457">«class»</text><text fill="#000000" font-family="sans-serif" font-size="12" lengthAdjust="spacingAndGlyphs" textLength="35" x="380.25" y="92.5508">Plugin</text><line style="stroke: #A80036; stroke-width: 1.5;" x1="331.5" x2="434.5" y1="100.1875" y2="100.1875"/><ellipse cx="341.5" cy="112.6055" fill="none" rx="3" ry="3" style="stroke: #038048; stroke-width: 1.0;"/><text fill="#000000" font-family="sans-serif" font-size="11" lengthAdjust="spacingAndGlyphs" textLength="45" x="350.5" y="115.6064">VERSION</text><line style="stroke: #A80036; stroke-width: 1.0;" x1="331.5" x2="434.5" y1="122.0234" y2="122.0234"/><ellipse cx="341.5" cy="134.4414" fill="#84BE84" rx="3" ry="3" style="stroke: #038048; stroke-width: 1.0;"/><text fill="#000000" font-family="sans-serif" font-size="11" lengthAdjust="spacingAndGlyphs" text-decoration="underline" textLength="16" x="350.5" y="137.4424">run</text><line style="stroke: #000000; stroke-width: 1.0;" x1="350.5" x2="366.5" y1="139.4424" y2="139.4424"/><text fill="#000000" font-family="sans-serif" font-size="11" lengthAdjust="spacingAndGlyphs" textLength="8" x="366.5" y="137.4424">()</text><rect fill="#F24D5C" height="6" style="stroke: #C82930; stroke-width: 1.0;" width="6" x="338.5" y="145.2773"/><text fill="#000000" font-family="sans-serif" font-size="11" lengthAdjust="spacingAndGlyphs" text-decoration="underline" textLength="36" x="350.5" y="151.2783">version</text><line style="stroke: #000000; stroke-width: 1.0;" x1="350.5" x2="386.5" y1="153.2783" y2="153.2783"/><text fill="#000000" font-family="sans-serif" font-size="11" lengthAdjust="spacingAndGlyphs" textLength="8" x="386.5" y="151.2783">()</text><ellipse cx="341.5" cy="162.1133" fill="#84BE84" rx="3" ry="3" style="stroke: #038048; stroke-width: 1.0;"/><text fill="#000000" font-family="sans-serif" font-size="11" lengthAdjust="spacingAndGlyphs" text-decoration="underline" textLength="22" x="350.5" y="165.1143">main</text><line style="stroke: #000000; stroke-width: 1.0;" x1="350.5" x2="372.5" y1="167.1143" y2="167.1143"/><text fill="#000000" font-family="sans-serif" font-size="11" lengthAdjust="spacingAndGlyphs" textLength="8" x="372.5" y="165.1143">()</text><rect fill="#F24D5C" height="6" style="stroke: #C82930; stroke-width: 1.0;" width="6" x="338.5" y="172.9492"/><text fill="#000000" font-family="sans-serif" font-size="11" lengthAdjust="spacingAndGlyphs" text-decoration="underline" textLength="65" x="350.5" y="178.9502">highscoreList</text><line style="stroke: #000000; stroke-width: 1.0;" x1="350.5" x2="415.5" y1="180.9502" y2="180.9502"/><text fill="#000000" font-family="sans-serif" font-size="11" lengthAdjust="spacingAndGlyphs" textLength="8" x="415.5" y="178.9502">()</text><rect fill="#F24D5C" height="6" style="stroke: #C82930; stroke-width: 1.0;" width="6" x="338.5" y="186.7852"/><text fill="#000000" font-family="sans-serif" font-size="11" lengthAdjust="spacingAndGlyphs" text-decoration="underline" textLength="71" x="350.5" y="192.7861">newHighscore</text><line style="stroke: #000000; stroke-width: 1.0;" x1="350.5" x2="421.5" y1="194.7861" y2="194.7861"/><text fill="#000000" font-family="sans-serif" font-size="11" lengthAdjust="spacingAndGlyphs" textLength="8" x="421.5" y="192.7861">()</text><rect fill="#F24D5C" height="6" style="stroke: #C82930; stroke-width: 1.0;" width="6" x="338.5" y="200.6211"/><text fill="#000000" font-family="sans-serif" font-size="11" lengthAdjust="spacingAndGlyphs" text-decoration="underline" textLength="40" x="350.5" y="206.6221">headers</text><line style="stroke: #000000; stroke-width: 1.0;" x1="350.5" x2="390.5" y1="208.6221" y2="208.6221"/><text fill="#000000" font-family="sans-serif" font-size="11" lengthAdjust="spacingAndGlyphs" textLength="8" x="390.5" y="206.6221">()</text><rect fill="#F24D5C" height="6" style="stroke: #C82930; stroke-width: 1.0;" width="6" x="338.5" y="214.457"/><text fill="#000000" font-family="sans-serif" font-size="11" lengthAdjust="spacingAndGlyphs" text-decoration="underline" textLength="32" x="350.5" y="220.458">langJS</text><line style="stroke: #000000; stroke-width: 1.0;" x1="350.5" x2="382.5" y1="222.458" y2="222.458"/><text fill="#000000" font-family="sans-serif" font-size="11" lengthAdjust="spacingAndGlyphs" textLength="8" x="382.5" y="220.458">()</text><rect fill="#FEFECE" filter="url(#f1)" height="180.7109" style="stroke: #A80036; stroke-width: 1.5;" width="148" x="38" y="307.5"/><ellipse cx="53" cy="327.5938" fill="#ADD1B2" rx="11" ry="11" style="stroke: #A80036; stroke-width: 1.0;"/><path d="M55.7656,323.4688 Q55.9219,323.25 56.1094,323.1406 Q56.2969,323.0313 56.5156,323.0313 Q56.8906,323.0313 57.125,323.2891 Q57.3594,323.5469 57.3594,324.1563 L57.3594,325.6094 Q57.3594,326.2188 57.125,326.4844 Q56.8906,326.75 56.5156,326.75 Q56.1719,326.75 55.9688,326.5469 Q55.7656,326.3594 55.6563,325.8438 Q55.6094,325.4844 55.4219,325.2969 Q55.0938,324.9219 54.4844,324.7031 Q53.875,324.4844 53.25,324.4844 Q52.4844,324.4844 51.8516,324.8125 Q51.2188,325.1406 50.7266,325.8906 Q50.2344,326.6406 50.2344,327.6719 L50.2344,328.7656 Q50.2344,330 51.125,330.8203 Q52.0156,331.6406 53.6094,331.6406 Q54.5469,331.6406 55.2031,331.3906 Q55.5938,331.2344 56.0156,330.7969 Q56.2813,330.5313 56.4297,330.4531 Q56.5781,330.375 56.7813,330.375 Q57.1094,330.375 57.3672,330.6328 Q57.625,330.8906 57.625,331.2344 Q57.625,331.5781 57.2813,331.9844 Q56.7813,332.5625 55.9844,332.8906 Q54.9063,333.3438 53.6094,333.3438 Q52.0938,333.3438 50.8906,332.7188 Q49.9063,332.2188 49.2188,331.1484 Q48.5313,330.0781 48.5313,328.7969 L48.5313,327.6406 Q48.5313,326.3125 49.1484,325.1641 Q49.7656,324.0156 50.8594,323.3984 Q51.9531,322.7813 53.1875,322.7813 Q53.9219,322.7813 54.5703,322.9453 Q55.2188,323.1094 55.7656,323.4688 Z "/><text fill="#000000" font-family="sans-serif" font-size="12" font-style="italic" lengthAdjust="spacingAndGlyphs" textLength="42" x="104" y="324.957">«class»</text><text fill="#000000" font-family="sans-serif" font-size="12" lengthAdjust="spacingAndGlyphs" textLength="116" x="67" y="340.0508">SystemCheckService</text><line style="stroke: #A80036; stroke-width: 1.5;" x1="39" x2="185" y1="347.6875" y2="347.6875"/><rect fill="none" height="6" style="stroke: #C82930; stroke-width: 1.0;" width="6" x="46" y="357.1055"/><text fill="#000000" font-family="sans-serif" font-size="11" lengthAdjust="spacingAndGlyphs" textLength="58" x="58" y="363.1064">pluginFolder</text><rect fill="none" height="6" style="stroke: #C82930; stroke-width: 1.0;" width="6" x="46" y="370.9414"/><text fill="#000000" font-family="sans-serif" font-size="11" lengthAdjust="spacingAndGlyphs" textLength="20" x="58" y="376.9424">lang</text><line style="stroke: #A80036; stroke-width: 1.0;" x1="39" x2="185" y1="383.3594" y2="383.3594"/><ellipse cx="49" cy="395.7773" fill="#84BE84" rx="3" ry="3" style="stroke: #038048; stroke-width: 1.0;"/><text fill="#000000" font-family="sans-serif" font-size="11" lengthAdjust="spacingAndGlyphs" textLength="66" x="58" y="398.7783">__construct()</text><ellipse cx="49" cy="409.6133" fill="#84BE84" rx="3" ry="3" style="stroke: #038048; stroke-width: 1.0;"/><text fill="#000000" font-family="sans-serif" font-size="11" lengthAdjust="spacingAndGlyphs" textLength="59" x="58" y="412.6143">getChecks()</text><rect fill="#F24D5C" height="6" style="stroke: #C82930; stroke-width: 1.0;" width="6" x="46" y="420.4492"/><text fill="#000000" font-family="sans-serif" font-size="11" lengthAdjust="spacingAndGlyphs" textLength="93" x="58" y="426.4502">checkPhpVersion()</text><rect fill="#F24D5C" height="6" style="stroke: #C82930; stroke-width: 1.0;" width="6" x="46" y="434.2852"/><text fill="#000000" font-family="sans-serif" font-size="11" lengthAdjust="spacingAndGlyphs" textLength="84" x="58" y="440.2861">checkExtension()</text><rect fill="#F24D5C" height="6" style="stroke: #C82930; stroke-width: 1.0;" width="6" x="46" y="448.1211"/><text fill="#000000" font-family="sans-serif" font-size="11" lengthAdjust="spacingAndGlyphs" textLength="88" x="58" y="454.1221">checkXhVersion()</text><rect fill="#F24D5C" height="6" style="stroke: #C82930; stroke-width: 1.0;" width="6" x="46" y="461.957"/><text fill="#000000" font-family="sans-serif" font-size="11" lengthAdjust="spacingAndGlyphs" textLength="65" x="58" y="467.958">checkPlugin()</text><rect fill="#F24D5C" height="6" style="stroke: #C82930; stroke-width: 1.0;" width="6" x="46" y="475.793"/><text fill="#000000" font-family="sans-serif" font-size="11" lengthAdjust="spacingAndGlyphs" textLength="83" x="58" y="481.7939">checkWritability()</text><rect fill="#FEFECE" filter="url(#f1)" height="222.2188" style="stroke: #A80036; stroke-width: 1.5;" width="92" x="221" y="287"/><ellipse cx="245.9" cy="307.0938" fill="#ADD1B2" rx="11" ry="11" style="stroke: #A80036; stroke-width: 1.0;"/><path d="M248.6656,302.9688 Q248.8219,302.75 249.0094,302.6406 Q249.1969,302.5313 249.4156,302.5313 Q249.7906,302.5313 250.025,302.7891 Q250.2594,303.0469 250.2594,303.6563 L250.2594,305.1094 Q250.2594,305.7188 250.025,305.9844 Q249.7906,306.25 249.4156,306.25 Q249.0719,306.25 248.8688,306.0469 Q248.6656,305.8594 248.5563,305.3438 Q248.5094,304.9844 248.3219,304.7969 Q247.9938,304.4219 247.3844,304.2031 Q246.775,303.9844 246.15,303.9844 Q245.3844,303.9844 244.7516,304.3125 Q244.1188,304.6406 243.6266,305.3906 Q243.1344,306.1406 243.1344,307.1719 L243.1344,308.2656 Q243.1344,309.5 244.025,310.3203 Q244.9156,311.1406 246.5094,311.1406 Q247.4469,311.1406 248.1031,310.8906 Q248.4938,310.7344 248.9156,310.2969 Q249.1813,310.0313 249.3297,309.9531 Q249.4781,309.875 249.6813,309.875 Q250.0094,309.875 250.2672,310.1328 Q250.525,310.3906 250.525,310.7344 Q250.525,311.0781 250.1813,311.4844 Q249.6813,312.0625 248.8844,312.3906 Q247.8063,312.8438 246.5094,312.8438 Q244.9938,312.8438 243.7906,312.2188 Q242.8063,311.7188 242.1188,310.6484 Q241.4313,309.5781 241.4313,308.2969 L241.4313,307.1406 Q241.4313,305.8125 242.0484,304.6641 Q242.6656,303.5156 243.7594,302.8984 Q244.8531,302.2813 246.0875,302.2813 Q246.8219,302.2813 247.4703,302.4453 Q248.1188,302.6094 248.6656,302.9688 Z "/><text fill="#000000" font-family="sans-serif" font-size="12" font-style="italic" lengthAdjust="spacingAndGlyphs" textLength="42" x="260.1" y="304.457">«class»</text><text fill="#000000" font-family="sans-serif" font-size="12" lengthAdjust="spacingAndGlyphs" textLength="26" x="268.1" y="319.5508">View</text><line style="stroke: #A80036; stroke-width: 1.5;" x1="222" x2="312" y1="327.1875" y2="327.1875"/><rect fill="none" height="6" style="stroke: #C82930; stroke-width: 1.0;" width="6" x="229" y="336.6055"/><text fill="#000000" font-family="sans-serif" font-size="11" lengthAdjust="spacingAndGlyphs" textLength="40" x="241" y="342.6064">template</text><rect fill="none" height="6" style="stroke: #C82930; stroke-width: 1.0;" width="6" x="229" y="350.4414"/><text fill="#000000" font-family="sans-serif" font-size="11" lengthAdjust="spacingAndGlyphs" textLength="21" x="241" y="356.4424">data</text><line style="stroke: #A80036; stroke-width: 1.0;" x1="222" x2="312" y1="362.8594" y2="362.8594"/><ellipse cx="232" cy="375.2773" fill="#84BE84" rx="3" ry="3" style="stroke: #038048; stroke-width: 1.0;"/><text fill="#000000" font-family="sans-serif" font-size="11" lengthAdjust="spacingAndGlyphs" textLength="66" x="241" y="378.2783">__construct()</text><ellipse cx="232" cy="389.1133" fill="#84BE84" rx="3" ry="3" style="stroke: #038048; stroke-width: 1.0;"/><text fill="#000000" font-family="sans-serif" font-size="11" lengthAdjust="spacingAndGlyphs" textLength="35" x="241" y="392.1143">__set()</text><ellipse cx="232" cy="402.9492" fill="#84BE84" rx="3" ry="3" style="stroke: #038048; stroke-width: 1.0;"/><text fill="#000000" font-family="sans-serif" font-size="11" lengthAdjust="spacingAndGlyphs" textLength="35" x="241" y="405.9502">__get()</text><ellipse cx="232" cy="416.7852" fill="#84BE84" rx="3" ry="3" style="stroke: #038048; stroke-width: 1.0;"/><text fill="#000000" font-family="sans-serif" font-size="11" lengthAdjust="spacingAndGlyphs" textLength="43" x="241" y="419.7861">__isset()</text><ellipse cx="232" cy="430.6211" fill="#84BE84" rx="3" ry="3" style="stroke: #038048; stroke-width: 1.0;"/><text fill="#000000" font-family="sans-serif" font-size="11" lengthAdjust="spacingAndGlyphs" textLength="36" x="241" y="433.6221">__call()</text><ellipse cx="232" cy="444.457" fill="#84BE84" rx="3" ry="3" style="stroke: #038048; stroke-width: 1.0;"/><text fill="#000000" font-family="sans-serif" font-size="11" lengthAdjust="spacingAndGlyphs" textLength="57" x="241" y="447.458">__toString()</text><polygon fill="#FFFF44" points="232,453.293,236,457.293,232,461.293,228,457.293" style="stroke: #B38D22; stroke-width: 1.0;"/><text fill="#000000" font-family="sans-serif" font-size="11" lengthAdjust="spacingAndGlyphs" textLength="26" x="241" y="461.2939">text()</text><polygon fill="#FFFF44" points="232,467.1289,236,471.1289,232,475.1289,228,471.1289" style="stroke: #B38D22; stroke-width: 1.0;"/><text fill="#000000" font-family="sans-serif" font-size="11" lengthAdjust="spacingAndGlyphs" textLength="34" x="241" y="475.1299">plural()</text><ellipse cx="232" cy="485.9648" fill="#84BE84" rx="3" ry="3" style="stroke: #038048; stroke-width: 1.0;"/><text fill="#000000" font-family="sans-serif" font-size="11" lengthAdjust="spacingAndGlyphs" textLength="40" x="241" y="488.9658">render()</text><polygon fill="#FFFF44" points="232,494.8008,236,498.8008,232,502.8008,228,498.8008" style="stroke: #B38D22; stroke-width: 1.0;"/><text fill="#000000" font-family="sans-serif" font-size="11" lengthAdjust="spacingAndGlyphs" textLength="44" x="241" y="502.8018">escape()</text></g></svg>