<?xml version="1.0" encoding="UTF-8" standalone="yes"?><svg xmlns="http://www.w3.org/2000/svg" xmlns:xlink="http://www.w3.org/1999/xlink" height="546px" style="width:501px;height:546px;" version="1.1" viewBox="0 0 501 546" width="501px"><defs><filter height="300%" id="f1" width="300%" x="-1" y="-1"><feGaussianBlur result="blurOut" stdDeviation="2.0"/><feColorMatrix in="blurOut" result="blurOut2" type="matrix" values="0 0 0 0 0 0 0 0 0 0 0 0 0 0 0 0 0 0 .4 0"/><feOffset dx="4.0" dy="4.0" in="blurOut2" result="blurOut3"/><feBlend in="SourceGraphic" in2="blurOut3" mode="normal"/></filter></defs><g><polygon fill="#FFFFFF" filter="url(#f1)" points="22,24,68,24,75,47.6094,494,47.6094,494,539,22,539,22,24" style="stroke: #000000; stroke-width: 2.0;"/><line style="stroke: #000000; stroke-width: 2.0;" x1="22" x2="75" y1="47.6094" y2="47.6094"/><text fill="#000000" font-family="sans-serif" font-size="14" font-weight="bold" lengthAdjust="spacingAndGlyphs" textLength="40" x="26" y="40.5332">Tetris</text><rect fill="#FEFECE" filter="url(#f1)" height="125.3672" style="stroke: #A80036; stroke-width: 1.5;" width="129" x="38.5" y="88"/><ellipse cx="53.5" cy="108.0938" fill="#ADD1B2" rx="11" ry="11" style="stroke: #A80036; stroke-width: 1.0;"/><path d="M56.2656,103.9688 Q56.4219,103.75 56.6094,103.6406 Q56.7969,103.5313 57.0156,103.5313 Q57.3906,103.5313 57.625,103.7891 Q57.8594,104.0469 57.8594,104.6563 L57.8594,106.1094 Q57.8594,106.7188 57.625,106.9844 Q57.3906,107.25 57.0156,107.25 Q56.6719,107.25 56.4688,107.0469 Q56.2656,106.8594 56.1563,106.3438 Q56.1094,105.9844 55.9219,105.7969 Q55.5938,105.4219 54.9844,105.2031 Q54.375,104.9844 53.75,104.9844 Q52.9844,104.9844 52.3516,105.3125 Q51.7188,105.6406 51.2266,106.3906 Q50.7344,107.1406 50.7344,108.1719 L50.7344,109.2656 Q50.7344,110.5 51.625,111.3203 Q52.5156,112.1406 54.1094,112.1406 Q55.0469,112.1406 55.7031,111.8906 Q56.0938,111.7344 56.5156,111.2969 Q56.7813,111.0313 56.9297,110.9531 Q57.0781,110.875 57.2813,110.875 Q57.6094,110.875 57.8672,111.1328 Q58.125,111.3906 58.125,111.7344 Q58.125,112.0781 57.7813,112.4844 Q57.2813,113.0625 56.4844,113.3906 Q55.4063,113.8438 54.1094,113.8438 Q52.5938,113.8438 51.3906,113.2188 Q50.4063,112.7188 49.7188,111.6484 Q49.0313,110.5781 49.0313,109.2969 L49.0313,108.1406 Q49.0313,106.8125 49.6484,105.6641 Q50.2656,104.5156 51.3594,103.8984 Q52.4531,103.2813 53.6875,103.2813 Q54.4219,103.2813 55.0703,103.4453 Q55.7188,103.6094 56.2656,103.9688 Z "/><text fill="#000000" font-family="sans-serif" font-size="12" font-style="italic" lengthAdjust="spacingAndGlyphs" textLength="42" x="95" y="105.457">«class»</text><text fill="#000000" font-family="sans-serif" font-size="12" lengthAdjust="spacingAndGlyphs" textLength="97" x="67.5" y="120.5508">HighscoreService</text><line style="stroke: #A80036; stroke-width: 1.5;" x1="39.5" x2="166.5" y1="128.1875" y2="128.1875"/><line style="stroke: #A80036; stroke-width: 1.5;" x1="39.5" x2="166.5" y1="136.1875" y2="136.1875"/><ellipse cx="49.5" cy="148.6055" fill="#84BE84" rx="3" ry="3" style="stroke: #038048; stroke-width: 1.0;"/><text fill="#000000" font-family="sans-serif" font-size="11" lengthAdjust="spacingAndGlyphs" text-decoration="underline" textLength="77" x="58.5" y="151.6064">readHighscores</text><line style="stroke: #000000; stroke-width: 1.0;" x1="58.5" x2="135.5" y1="153.6064" y2="153.6064"/><text fill="#000000" font-family="sans-serif" font-size="11" lengthAdjust="spacingAndGlyphs" textLength="8" x="135.5" y="151.6064">()</text><ellipse cx="49.5" cy="162.4414" fill="#84BE84" rx="3" ry="3" style="stroke: #038048; stroke-width: 1.0;"/><text fill="#000000" font-family="sans-serif" font-size="11" lengthAdjust="spacingAndGlyphs" text-decoration="underline" textLength="89" x="58.5" y="165.4424">requiredHighscore</text><line style="stroke: #000000; stroke-width: 1.0;" x1="58.5" x2="147.5" y1="167.4424" y2="167.4424"/><text fill="#000000" font-family="sans-serif" font-size="11" lengthAdjust="spacingAndGlyphs" textLength="8" x="147.5" y="165.4424">()</text><ellipse cx="49.5" cy="176.2773" fill="#84BE84" rx="3" ry="3" style="stroke: #038048; stroke-width: 1.0;"/><text fill="#000000" font-family="sans-serif" font-size="11" lengthAdjust="spacingAndGlyphs" text-decoration="underline" textLength="74" x="58.5" y="179.2783">enterHighscore</text><line style="stroke: #000000; stroke-width: 1.0;" x1="58.5" x2="132.5" y1="181.2783" y2="181.2783"/><text fill="#000000" font-family="sans-serif" font-size="11" lengthAdjust="spacingAndGlyphs" textLength="8" x="132.5" y="179.2783">()</text><rect fill="#F24D5C" height="6" style="stroke: #C82930; stroke-width: 1.0;" width="6" x="46.5" y="187.1133"/><text fill="#000000" font-family="sans-serif" font-size="11" lengthAdjust="spacingAndGlyphs" text-decoration="underline" textLength="80" x="58.5" y="193.1143">writeHighscores</text><line style="stroke: #000000; stroke-width: 1.0;" x1="58.5" x2="138.5" y1="195.1143" y2="195.1143"/><text fill="#000000" font-family="sans-serif" font-size="11" lengthAdjust="spacingAndGlyphs" textLength="8" x="138.5" y="193.1143">()</text><ellipse cx="49.5" cy="203.9492" fill="#84BE84" rx="3" ry="3" style="stroke: #038048; stroke-width: 1.0;"/><text fill="#000000" font-family="sans-serif" font-size="11" lengthAdjust="spacingAndGlyphs" text-decoration="underline" textLength="51" x="58.5" y="206.9502">dataFolder</text><line style="stroke: #000000; stroke-width: 1.0;" x1="58.5" x2="109.5" y1="208.9502" y2="208.9502"/><text fill="#000000" font-family="sans-serif" font-size="11" lengthAdjust="spacingAndGlyphs" textLength="8" x="109.5" y="206.9502">()</text><rect fill="#FEFECE" filter="url(#f1)" height="97.6953" style="stroke: #A80036; stroke-width: 1.5;" width="92" x="203" y="101.5"/><ellipse cx="218.9" cy="121.5938" fill="#ADD1B2" rx="11" ry="11" style="stroke: #A80036; stroke-width: 1.0;"/><path d="M221.6656,117.4688 Q221.8219,117.25 222.0094,117.1406 Q222.1969,117.0313 222.4156,117.0313 Q222.7906,117.0313 223.025,117.2891 Q223.2594,117.5469 223.2594,118.1563 L223.2594,119.6094 Q223.2594,120.2188 223.025,120.4844 Q222.7906,120.75 222.4156,120.75 Q222.0719,120.75 221.8688,120.5469 Q221.6656,120.3594 221.5563,119.8438 Q221.5094,119.4844 221.3219,119.2969 Q220.9938,118.9219 220.3844,118.7031 Q219.775,118.4844 219.15,118.4844 Q218.3844,118.4844 217.7516,118.8125 Q217.1188,119.1406 216.6266,119.8906 Q216.1344,120.6406 216.1344,121.6719 L216.1344,122.7656 Q216.1344,124 217.025,124.8203 Q217.9156,125.6406 219.5094,125.6406 Q220.4469,125.6406 221.1031,125.3906 Q221.4938,125.2344 221.9156,124.7969 Q222.1813,124.5313 222.3297,124.4531 Q222.4781,124.375 222.6813,124.375 Q223.0094,124.375 223.2672,124.6328 Q223.525,124.8906 223.525,125.2344 Q223.525,125.5781 223.1813,125.9844 Q222.6813,126.5625 221.8844,126.8906 Q220.8063,127.3438 219.5094,127.3438 Q217.9938,127.3438 216.7906,126.7188 Q215.8063,126.2188 215.1188,125.1484 Q214.4313,124.0781 214.4313,122.7969 L214.4313,121.6406 Q214.4313,120.3125 215.0484,119.1641 Q215.6656,118.0156 216.7594,117.3984 Q217.8531,116.7813 219.0875,116.7813 Q219.8219,116.7813 220.4703,116.9453 Q221.1188,117.1094 221.6656,117.4688 Z "/><text fill="#000000" font-family="sans-serif" font-size="12" font-style="italic" lengthAdjust="spacingAndGlyphs" textLength="42" x="241.1" y="118.957">«class»</text><text fill="#000000" font-family="sans-serif" font-size="12" lengthAdjust="spacingAndGlyphs" textLength="58" x="233.1" y="134.0508">HtmlString</text><line style="stroke: #A80036; stroke-width: 1.5;" x1="204" x2="294" y1="141.6875" y2="141.6875"/><rect fill="none" height="6" style="stroke: #C82930; stroke-width: 1.0;" width="6" x="211" y="151.1055"/><text fill="#000000" font-family="sans-serif" font-size="11" lengthAdjust="spacingAndGlyphs" textLength="26" x="223" y="157.1064">value</text><line style="stroke: #A80036; stroke-width: 1.0;" x1="204" x2="294" y1="163.5234" y2="163.5234"/><ellipse cx="214" cy="175.9414" fill="#84BE84" rx="3" ry="3" style="stroke: #038048; stroke-width: 1.0;"/><text fill="#000000" font-family="sans-serif" font-size="11" lengthAdjust="spacingAndGlyphs" textLength="66" x="223" y="178.9424">__construct()</text><ellipse cx="214" cy="189.7773" fill="#84BE84" rx="3" ry="3" style="stroke: #038048; stroke-width: 1.0;"/><text fill="#000000" font-family="sans-serif" font-size="11" lengthAdjust="spacingAndGlyphs" textLength="57" x="223" y="192.7783">__toString()</text><rect fill="#FEFECE" filter="url(#f1)" height="180.7109" style="stroke: #A80036; stroke-width: 1.5;" width="148" x="330" y="60"/><ellipse cx="361.2" cy="80.0938" fill="#ADD1B2" rx="11" ry="11" style="stroke: #A80036; stroke-width: 1.0;"/><path d="M363.9656,75.9688 Q364.1219,75.75 364.3094,75.6406 Q364.4969,75.5313 364.7156,75.5313 Q365.0906,75.5313 365.325,75.7891 Q365.5594,76.0469 365.5594,76.6563 L365.5594,78.1094 Q365.5594,78.7188 365.325,78.9844 Q365.0906,79.25 364.7156,79.25 Q364.3719,79.25 364.1688,79.0469 Q363.9656,78.8594 363.8563,78.3438 Q363.8094,77.9844 363.6219,77.7969 Q363.2938,77.4219 362.6844,77.2031 Q362.075,76.9844 361.45,76.9844 Q360.6844,76.9844 360.0516,77.3125 Q359.4188,77.6406 358.9266,78.3906 Q358.4344,79.1406 358.4344,80.1719 L358.4344,81.2656 Q358.4344,82.5 359.325,83.3203 Q360.2156,84.1406 361.8094,84.1406 Q362.7469,84.1406 363.4031,83.8906 Q363.7938,83.7344 364.2156,83.2969 Q364.4813,83.0313 364.6297,82.9531 Q364.7781,82.875 364.9813,82.875 Q365.3094,82.875 365.5672,83.1328 Q365.825,83.3906 365.825,83.7344 Q365.825,84.0781 365.4813,84.4844 Q364.9813,85.0625 364.1844,85.3906 Q363.1063,85.8438 361.8094,85.8438 Q360.2938,85.8438 359.0906,85.2188 Q358.1063,84.7188 357.4188,83.6484 Q356.7313,82.5781 356.7313,81.2969 L356.7313,80.1406 Q356.7313,78.8125 357.3484,77.6641 Q357.9656,76.5156 359.0594,75.8984 Q360.1531,75.2813 361.3875,75.2813 Q362.1219,75.2813 362.7703,75.4453 Q363.4188,75.6094 363.9656,75.9688 Z "/><text fill="#000000" font-family="sans-serif" font-size="12" font-style="italic" lengthAdjust="spacingAndGlyphs" textLength="42" x="397.8" y="77.457">«class»</text><text fill="#000000" font-family="sans-serif" font-size="12" lengthAdjust="spacingAndGlyphs" textLength="80" x="378.8" y="92.5508">MainController</text><line style="stroke: #A80036; stroke-width: 1.5;" x1="331" x2="477" y1="100.1875" y2="100.1875"/><rect fill="none" height="6" style="stroke: #C82930; stroke-width: 1.0;" width="6" x="338" y="109.6055"/><text fill="#000000" font-family="sans-serif" font-size="11" lengthAdjust="spacingAndGlyphs" textLength="22" x="350" y="115.6064">conf</text><rect fill="none" height="6" style="stroke: #C82930; stroke-width: 1.0;" width="6" x="338" y="123.4414"/><text fill="#000000" font-family="sans-serif" font-size="11" lengthAdjust="spacingAndGlyphs" textLength="20" x="350" y="129.4424">lang</text><line style="stroke: #A80036; stroke-width: 1.0;" x1="331" x2="477" y1="135.8594" y2="135.8594"/><ellipse cx="341" cy="148.2773" fill="#84BE84" rx="3" ry="3" style="stroke: #038048; stroke-width: 1.0;"/><text fill="#000000" font-family="sans-serif" font-size="11" lengthAdjust="spacingAndGlyphs" textLength="66" x="350" y="151.2783">__construct()</text><ellipse cx="341" cy="162.1133" fill="#84BE84" rx="3" ry="3" style="stroke: #038048; stroke-width: 1.0;"/><text fill="#000000" font-family="sans-serif" font-size="11" lengthAdjust="spacingAndGlyphs" textLength="72" x="350" y="165.1143">defaultAction()</text><rect fill="#F24D5C" height="6" style="stroke: #C82930; stroke-width: 1.0;" width="6" x="338" y="172.9492"/><text fill="#000000" font-family="sans-serif" font-size="11" lengthAdjust="spacingAndGlyphs" textLength="48" x="350" y="178.9502">headers()</text><rect fill="#F24D5C" height="6" style="stroke: #C82930; stroke-width: 1.0;" width="6" x="338" y="186.7852"/><text fill="#000000" font-family="sans-serif" font-size="11" lengthAdjust="spacingAndGlyphs" textLength="40" x="350" y="192.7861">langJS()</text><ellipse cx="341" cy="203.6211" fill="#84BE84" rx="3" ry="3" style="stroke: #038048; stroke-width: 1.0;"/><text fill="#000000" font-family="sans-serif" font-size="11" lengthAdjust="spacingAndGlyphs" textLength="103" x="350" y="206.6221">getHighscoreAction()</text><ellipse cx="341" cy="217.457" fill="#84BE84" rx="3" ry="3" style="stroke: #038048; stroke-width: 1.0;"/><text fill="#000000" font-family="sans-serif" font-size="11" lengthAdjust="spacingAndGlyphs" textLength="122" x="350" y="220.458">showHighscoresAction()</text><ellipse cx="341" cy="231.293" fill="#84BE84" rx="3" ry="3" style="stroke: #038048; stroke-width: 1.0;"/><text fill="#000000" font-family="sans-serif" font-size="11" lengthAdjust="spacingAndGlyphs" textLength="110" x="350" y="234.2939">newHighscoreAction()</text><rect fill="#FEFECE" filter="url(#f1)" height="97.6953" style="stroke: #A80036; stroke-width: 1.5;" width="71" x="67.5" y="363"/><ellipse cx="82.95" cy="383.0938" fill="#ADD1B2" rx="11" ry="11" style="stroke: #A80036; stroke-width: 1.0;"/><path d="M85.7156,378.9688 Q85.8719,378.75 86.0594,378.6406 Q86.2469,378.5313 86.4656,378.5313 Q86.8406,378.5313 87.075,378.7891 Q87.3094,379.0469 87.3094,379.6563 L87.3094,381.1094 Q87.3094,381.7188 87.075,381.9844 Q86.8406,382.25 86.4656,382.25 Q86.1219,382.25 85.9188,382.0469 Q85.7156,381.8594 85.6063,381.3438 Q85.5594,380.9844 85.3719,380.7969 Q85.0438,380.4219 84.4344,380.2031 Q83.825,379.9844 83.2,379.9844 Q82.4344,379.9844 81.8016,380.3125 Q81.1688,380.6406 80.6766,381.3906 Q80.1844,382.1406 80.1844,383.1719 L80.1844,384.2656 Q80.1844,385.5 81.075,386.3203 Q81.9656,387.1406 83.5594,387.1406 Q84.4969,387.1406 85.1531,386.8906 Q85.5438,386.7344 85.9656,386.2969 Q86.2313,386.0313 86.3797,385.9531 Q86.5281,385.875 86.7313,385.875 Q87.0594,385.875 87.3172,386.1328 Q87.575,386.3906 87.575,386.7344 Q87.575,387.0781 87.2313,387.4844 Q86.7313,388.0625 85.9344,388.3906 Q84.8563,388.8438 83.5594,388.8438 Q82.0438,388.8438 80.8406,388.2188 Q79.8563,387.7188 79.1688,386.6484 Q78.4813,385.5781 78.4813,384.2969 L78.4813,383.1406 Q78.4813,381.8125 79.0984,380.6641 Q79.7156,379.5156 80.8094,378.8984 Q81.9031,378.2813 83.1375,378.2813 Q83.8719,378.2813 84.5203,378.4453 Q85.1688,378.6094 85.7156,378.9688 Z "/><text fill="#000000" font-family="sans-serif" font-size="12" font-style="italic" lengthAdjust="spacingAndGlyphs" textLength="42" x="95.05" y="380.457">«class»</text><text fill="#000000" font-family="sans-serif" font-size="12" lengthAdjust="spacingAndGlyphs" textLength="35" x="98.55" y="395.5508">Plugin</text><line style="stroke: #A80036; stroke-width: 1.5;" x1="68.5" x2="137.5" y1="403.1875" y2="403.1875"/><ellipse cx="78.5" cy="415.6055" fill="none" rx="3" ry="3" style="stroke: #038048; stroke-width: 1.0;"/><text fill="#000000" font-family="sans-serif" font-size="11" lengthAdjust="spacingAndGlyphs" textLength="45" x="87.5" y="418.6064">VERSION</text><line style="stroke: #A80036; stroke-width: 1.0;" x1="68.5" x2="137.5" y1="425.0234" y2="425.0234"/><ellipse cx="78.5" cy="437.4414" fill="#84BE84" rx="3" ry="3" style="stroke: #038048; stroke-width: 1.0;"/><text fill="#000000" font-family="sans-serif" font-size="11" lengthAdjust="spacingAndGlyphs" textLength="24" x="87.5" y="440.4424">run()</text><rect fill="#F24D5C" height="6" style="stroke: #C82930; stroke-width: 1.0;" width="6" x="75.5" y="448.2773"/><text fill="#000000" font-family="sans-serif" font-size="11" lengthAdjust="spacingAndGlyphs" textLength="44" x="87.5" y="454.2783">version()</text><rect fill="#FEFECE" filter="url(#f1)" height="180.7109" style="stroke: #A80036; stroke-width: 1.5;" width="148" x="174" y="321.5"/><ellipse cx="189" cy="341.5938" fill="#ADD1B2" rx="11" ry="11" style="stroke: #A80036; stroke-width: 1.0;"/><path d="M191.7656,337.4688 Q191.9219,337.25 192.1094,337.1406 Q192.2969,337.0313 192.5156,337.0313 Q192.8906,337.0313 193.125,337.2891 Q193.3594,337.5469 193.3594,338.1563 L193.3594,339.6094 Q193.3594,340.2188 193.125,340.4844 Q192.8906,340.75 192.5156,340.75 Q192.1719,340.75 191.9688,340.5469 Q191.7656,340.3594 191.6563,339.8438 Q191.6094,339.4844 191.4219,339.2969 Q191.0938,338.9219 190.4844,338.7031 Q189.875,338.4844 189.25,338.4844 Q188.4844,338.4844 187.8516,338.8125 Q187.2188,339.1406 186.7266,339.8906 Q186.2344,340.6406 186.2344,341.6719 L186.2344,342.7656 Q186.2344,344 187.125,344.8203 Q188.0156,345.6406 189.6094,345.6406 Q190.5469,345.6406 191.2031,345.3906 Q191.5938,345.2344 192.0156,344.7969 Q192.2813,344.5313 192.4297,344.4531 Q192.5781,344.375 192.7813,344.375 Q193.1094,344.375 193.3672,344.6328 Q193.625,344.8906 193.625,345.2344 Q193.625,345.5781 193.2813,345.9844 Q192.7813,346.5625 191.9844,346.8906 Q190.9063,347.3438 189.6094,347.3438 Q188.0938,347.3438 186.8906,346.7188 Q185.9063,346.2188 185.2188,345.1484 Q184.5313,344.0781 184.5313,342.7969 L184.5313,341.6406 Q184.5313,340.3125 185.1484,339.1641 Q185.7656,338.0156 186.8594,337.3984 Q187.9531,336.7813 189.1875,336.7813 Q189.9219,336.7813 190.5703,336.9453 Q191.2188,337.1094 191.7656,337.4688 Z "/><text fill="#000000" font-family="sans-serif" font-size="12" font-style="italic" lengthAdjust="spacingAndGlyphs" textLength="42" x="240" y="338.957">«class»</text><text fill="#000000" font-family="sans-serif" font-size="12" lengthAdjust="spacingAndGlyphs" textLength="116" x="203" y="354.0508">SystemCheckService</text><line style="stroke: #A80036; stroke-width: 1.5;" x1="175" x2="321" y1="361.6875" y2="361.6875"/><rect fill="none" height="6" style="stroke: #C82930; stroke-width: 1.0;" width="6" x="182" y="371.1055"/><text fill="#000000" font-family="sans-serif" font-size="11" lengthAdjust="spacingAndGlyphs" textLength="58" x="194" y="377.1064">pluginFolder</text><rect fill="none" height="6" style="stroke: #C82930; stroke-width: 1.0;" width="6" x="182" y="384.9414"/><text fill="#000000" font-family="sans-serif" font-size="11" lengthAdjust="spacingAndGlyphs" textLength="20" x="194" y="390.9424">lang</text><line style="stroke: #A80036; stroke-width: 1.0;" x1="175" x2="321" y1="397.3594" y2="397.3594"/><ellipse cx="185" cy="409.7773" fill="#84BE84" rx="3" ry="3" style="stroke: #038048; stroke-width: 1.0;"/><text fill="#000000" font-family="sans-serif" font-size="11" lengthAdjust="spacingAndGlyphs" textLength="66" x="194" y="412.7783">__construct()</text><ellipse cx="185" cy="423.6133" fill="#84BE84" rx="3" ry="3" style="stroke: #038048; stroke-width: 1.0;"/><text fill="#000000" font-family="sans-serif" font-size="11" lengthAdjust="spacingAndGlyphs" textLength="59" x="194" y="426.6143">getChecks()</text><rect fill="#F24D5C" height="6" style="stroke: #C82930; stroke-width: 1.0;" width="6" x="182" y="434.4492"/><text fill="#000000" font-family="sans-serif" font-size="11" lengthAdjust="spacingAndGlyphs" textLength="93" x="194" y="440.4502">checkPhpVersion()</text><rect fill="#F24D5C" height="6" style="stroke: #C82930; stroke-width: 1.0;" width="6" x="182" y="448.2852"/><text fill="#000000" font-family="sans-serif" font-size="11" lengthAdjust="spacingAndGlyphs" textLength="84" x="194" y="454.2861">checkExtension()</text><rect fill="#F24D5C" height="6" style="stroke: #C82930; stroke-width: 1.0;" width="6" x="182" y="462.1211"/><text fill="#000000" font-family="sans-serif" font-size="11" lengthAdjust="spacingAndGlyphs" textLength="88" x="194" y="468.1221">checkXhVersion()</text><rect fill="#F24D5C" height="6" style="stroke: #C82930; stroke-width: 1.0;" width="6" x="182" y="475.957"/><text fill="#000000" font-family="sans-serif" font-size="11" lengthAdjust="spacingAndGlyphs" textLength="65" x="194" y="481.958">checkPlugin()</text><rect fill="#F24D5C" height="6" style="stroke: #C82930; stroke-width: 1.0;" width="6" x="182" y="489.793"/><text fill="#000000" font-family="sans-serif" font-size="11" lengthAdjust="spacingAndGlyphs" textLength="83" x="194" y="495.7939">checkWritability()</text><rect fill="#FEFECE" filter="url(#f1)" height="222.2188" style="stroke: #A80036; stroke-width: 1.5;" width="92" x="357" y="301"/><ellipse cx="381.9" cy="321.0938" fill="#ADD1B2" rx="11" ry="11" style="stroke: #A80036; stroke-width: 1.0;"/><path d="M384.6656,316.9688 Q384.8219,316.75 385.0094,316.6406 Q385.1969,316.5313 385.4156,316.5313 Q385.7906,316.5313 386.025,316.7891 Q386.2594,317.0469 386.2594,317.6563 L386.2594,319.1094 Q386.2594,319.7188 386.025,319.9844 Q385.7906,320.25 385.4156,320.25 Q385.0719,320.25 384.8688,320.0469 Q384.6656,319.8594 384.5563,319.3438 Q384.5094,318.9844 384.3219,318.7969 Q383.9938,318.4219 383.3844,318.2031 Q382.775,317.9844 382.15,317.9844 Q381.3844,317.9844 380.7516,318.3125 Q380.1188,318.6406 379.6266,319.3906 Q379.1344,320.1406 379.1344,321.1719 L379.1344,322.2656 Q379.1344,323.5 380.025,324.3203 Q380.9156,325.1406 382.5094,325.1406 Q383.4469,325.1406 384.1031,324.8906 Q384.4938,324.7344 384.9156,324.2969 Q385.1813,324.0313 385.3297,323.9531 Q385.4781,323.875 385.6813,323.875 Q386.0094,323.875 386.2672,324.1328 Q386.525,324.3906 386.525,324.7344 Q386.525,325.0781 386.1813,325.4844 Q385.6813,326.0625 384.8844,326.3906 Q383.8063,326.8438 382.5094,326.8438 Q380.9938,326.8438 379.7906,326.2188 Q378.8063,325.7188 378.1188,324.6484 Q377.4313,323.5781 377.4313,322.2969 L377.4313,321.1406 Q377.4313,319.8125 378.0484,318.6641 Q378.6656,317.5156 379.7594,316.8984 Q380.8531,316.2813 382.0875,316.2813 Q382.8219,316.2813 383.4703,316.4453 Q384.1188,316.6094 384.6656,316.9688 Z "/><text fill="#000000" font-family="sans-serif" font-size="12" font-style="italic" lengthAdjust="spacingAndGlyphs" textLength="42" x="396.1" y="318.457">«class»</text><text fill="#000000" font-family="sans-serif" font-size="12" lengthAdjust="spacingAndGlyphs" textLength="26" x="404.1" y="333.5508">View</text><line style="stroke: #A80036; stroke-width: 1.5;" x1="358" x2="448" y1="341.1875" y2="341.1875"/><rect fill="none" height="6" style="stroke: #C82930; stroke-width: 1.0;" width="6" x="365" y="350.6055"/><text fill="#000000" font-family="sans-serif" font-size="11" lengthAdjust="spacingAndGlyphs" textLength="40" x="377" y="356.6064">template</text><rect fill="none" height="6" style="stroke: #C82930; stroke-width: 1.0;" width="6" x="365" y="364.4414"/><text fill="#000000" font-family="sans-serif" font-size="11" lengthAdjust="spacingAndGlyphs" textLength="21" x="377" y="370.4424">data</text><line style="stroke: #A80036; stroke-width: 1.0;" x1="358" x2="448" y1="376.8594" y2="376.8594"/><ellipse cx="368" cy="389.2773" fill="#84BE84" rx="3" ry="3" style="stroke: #038048; stroke-width: 1.0;"/><text fill="#000000" font-family="sans-serif" font-size="11" lengthAdjust="spacingAndGlyphs" textLength="66" x="377" y="392.2783">__construct()</text><ellipse cx="368" cy="403.1133" fill="#84BE84" rx="3" ry="3" style="stroke: #038048; stroke-width: 1.0;"/><text fill="#000000" font-family="sans-serif" font-size="11" lengthAdjust="spacingAndGlyphs" textLength="35" x="377" y="406.1143">__set()</text><ellipse cx="368" cy="416.9492" fill="#84BE84" rx="3" ry="3" style="stroke: #038048; stroke-width: 1.0;"/><text fill="#000000" font-family="sans-serif" font-size="11" lengthAdjust="spacingAndGlyphs" textLength="35" x="377" y="419.9502">__get()</text><ellipse cx="368" cy="430.7852" fill="#84BE84" rx="3" ry="3" style="stroke: #038048; stroke-width: 1.0;"/><text fill="#000000" font-family="sans-serif" font-size="11" lengthAdjust="spacingAndGlyphs" textLength="43" x="377" y="433.7861">__isset()</text><ellipse cx="368" cy="444.6211" fill="#84BE84" rx="3" ry="3" style="stroke: #038048; stroke-width: 1.0;"/><text fill="#000000" font-family="sans-serif" font-size="11" lengthAdjust="spacingAndGlyphs" textLength="36" x="377" y="447.6221">__call()</text><ellipse cx="368" cy="458.457" fill="#84BE84" rx="3" ry="3" style="stroke: #038048; stroke-width: 1.0;"/><text fill="#000000" font-family="sans-serif" font-size="11" lengthAdjust="spacingAndGlyphs" textLength="57" x="377" y="461.458">__toString()</text><polygon fill="#FFFF44" points="368,467.293,372,471.293,368,475.293,364,471.293" style="stroke: #B38D22; stroke-width: 1.0;"/><text fill="#000000" font-family="sans-serif" font-size="11" lengthAdjust="spacingAndGlyphs" textLength="26" x="377" y="475.2939">text()</text><polygon fill="#FFFF44" points="368,481.1289,372,485.1289,368,489.1289,364,485.1289" style="stroke: #B38D22; stroke-width: 1.0;"/><text fill="#000000" font-family="sans-serif" font-size="11" lengthAdjust="spacingAndGlyphs" textLength="34" x="377" y="489.1299">plural()</text><ellipse cx="368" cy="499.9648" fill="#84BE84" rx="3" ry="3" style="stroke: #038048; stroke-width: 1.0;"/><text fill="#000000" font-family="sans-serif" font-size="11" lengthAdjust="spacingAndGlyphs" textLength="40" x="377" y="502.9658">render()</text><polygon fill="#FFFF44" points="368,508.8008,372,512.8008,368,516.8008,364,512.8008" style="stroke: #B38D22; stroke-width: 1.0;"/><text fill="#000000" font-family="sans-serif" font-size="11" lengthAdjust="spacingAndGlyphs" textLength="44" x="377" y="516.8018">escape()</text></g></svg>