<?xml version="1.0" encoding="UTF-8" standalone="yes"?><svg xmlns="http://www.w3.org/2000/svg" xmlns:xlink="http://www.w3.org/1999/xlink" height="490px" style="width:465px;height:490px;" version="1.1" viewBox="0 0 465 490" width="465px"><defs><filter height="300%" id="f1" width="300%" x="-1" y="-1"><feGaussianBlur result="blurOut" stdDeviation="2.0"/><feColorMatrix in="blurOut" result="blurOut2" type="matrix" values="0 0 0 0 0 0 0 0 0 0 0 0 0 0 0 0 0 0 .4 0"/><feOffset dx="4.0" dy="4.0" in="blurOut2" result="blurOut3"/><feBlend in="SourceGraphic" in2="blurOut3" mode="normal"/></filter></defs><g><polygon fill="#FFFFFF" filter="url(#f1)" points="22,24,68,24,75,47.6094,458,47.6094,458,483,22,483,22,24" style="stroke: #000000; stroke-width: 2.0;"/><line style="stroke: #000000; stroke-width: 2.0;" x1="22" x2="75" y1="47.6094" y2="47.6094"/><text fill="#000000" font-family="sans-serif" font-size="14" font-weight="bold" lengthAdjust="spacingAndGlyphs" textLength="40" x="26" y="40.5332">Tetris</text><rect fill="#FEFECE" filter="url(#f1)" height="125.3672" style="stroke: #A80036; stroke-width: 1.5;" width="129" x="38.5" y="60"/><ellipse cx="53.5" cy="80.0938" fill="#ADD1B2" rx="11" ry="11" style="stroke: #A80036; stroke-width: 1.0;"/><path d="M56.2656,75.9688 Q56.4219,75.75 56.6094,75.6406 Q56.7969,75.5313 57.0156,75.5313 Q57.3906,75.5313 57.625,75.7891 Q57.8594,76.0469 57.8594,76.6563 L57.8594,78.1094 Q57.8594,78.7188 57.625,78.9844 Q57.3906,79.25 57.0156,79.25 Q56.6719,79.25 56.4688,79.0469 Q56.2656,78.8594 56.1563,78.3438 Q56.1094,77.9844 55.9219,77.7969 Q55.5938,77.4219 54.9844,77.2031 Q54.375,76.9844 53.75,76.9844 Q52.9844,76.9844 52.3516,77.3125 Q51.7188,77.6406 51.2266,78.3906 Q50.7344,79.1406 50.7344,80.1719 L50.7344,81.2656 Q50.7344,82.5 51.625,83.3203 Q52.5156,84.1406 54.1094,84.1406 Q55.0469,84.1406 55.7031,83.8906 Q56.0938,83.7344 56.5156,83.2969 Q56.7813,83.0313 56.9297,82.9531 Q57.0781,82.875 57.2813,82.875 Q57.6094,82.875 57.8672,83.1328 Q58.125,83.3906 58.125,83.7344 Q58.125,84.0781 57.7813,84.4844 Q57.2813,85.0625 56.4844,85.3906 Q55.4063,85.8438 54.1094,85.8438 Q52.5938,85.8438 51.3906,85.2188 Q50.4063,84.7188 49.7188,83.6484 Q49.0313,82.5781 49.0313,81.2969 L49.0313,80.1406 Q49.0313,78.8125 49.6484,77.6641 Q50.2656,76.5156 51.3594,75.8984 Q52.4531,75.2813 53.6875,75.2813 Q54.4219,75.2813 55.0703,75.4453 Q55.7188,75.6094 56.2656,75.9688 Z "/><text fill="#000000" font-family="sans-serif" font-size="12" font-style="italic" lengthAdjust="spacingAndGlyphs" textLength="42" x="95" y="77.457">«class»</text><text fill="#000000" font-family="sans-serif" font-size="12" lengthAdjust="spacingAndGlyphs" textLength="97" x="67.5" y="92.5508">HighscoreService</text><line style="stroke: #A80036; stroke-width: 1.5;" x1="39.5" x2="166.5" y1="100.1875" y2="100.1875"/><line style="stroke: #A80036; stroke-width: 1.5;" x1="39.5" x2="166.5" y1="108.1875" y2="108.1875"/><ellipse cx="49.5" cy="120.6055" fill="#84BE84" rx="3" ry="3" style="stroke: #038048; stroke-width: 1.0;"/><text fill="#000000" font-family="sans-serif" font-size="11" lengthAdjust="spacingAndGlyphs" text-decoration="underline" textLength="77" x="58.5" y="123.6064">readHighscores</text><line style="stroke: #000000; stroke-width: 1.0;" x1="58.5" x2="135.5" y1="125.6064" y2="125.6064"/><text fill="#000000" font-family="sans-serif" font-size="11" lengthAdjust="spacingAndGlyphs" textLength="8" x="135.5" y="123.6064">()</text><ellipse cx="49.5" cy="134.4414" fill="#84BE84" rx="3" ry="3" style="stroke: #038048; stroke-width: 1.0;"/><text fill="#000000" font-family="sans-serif" font-size="11" lengthAdjust="spacingAndGlyphs" text-decoration="underline" textLength="89" x="58.5" y="137.4424">requiredHighscore</text><line style="stroke: #000000; stroke-width: 1.0;" x1="58.5" x2="147.5" y1="139.4424" y2="139.4424"/><text fill="#000000" font-family="sans-serif" font-size="11" lengthAdjust="spacingAndGlyphs" textLength="8" x="147.5" y="137.4424">()</text><ellipse cx="49.5" cy="148.2773" fill="#84BE84" rx="3" ry="3" style="stroke: #038048; stroke-width: 1.0;"/><text fill="#000000" font-family="sans-serif" font-size="11" lengthAdjust="spacingAndGlyphs" text-decoration="underline" textLength="74" x="58.5" y="151.2783">enterHighscore</text><line style="stroke: #000000; stroke-width: 1.0;" x1="58.5" x2="132.5" y1="153.2783" y2="153.2783"/><text fill="#000000" font-family="sans-serif" font-size="11" lengthAdjust="spacingAndGlyphs" textLength="8" x="132.5" y="151.2783">()</text><rect fill="#F24D5C" height="6" style="stroke: #C82930; stroke-width: 1.0;" width="6" x="46.5" y="159.1133"/><text fill="#000000" font-family="sans-serif" font-size="11" lengthAdjust="spacingAndGlyphs" text-decoration="underline" textLength="80" x="58.5" y="165.1143">writeHighscores</text><line style="stroke: #000000; stroke-width: 1.0;" x1="58.5" x2="138.5" y1="167.1143" y2="167.1143"/><text fill="#000000" font-family="sans-serif" font-size="11" lengthAdjust="spacingAndGlyphs" textLength="8" x="138.5" y="165.1143">()</text><ellipse cx="49.5" cy="175.9492" fill="#84BE84" rx="3" ry="3" style="stroke: #038048; stroke-width: 1.0;"/><text fill="#000000" font-family="sans-serif" font-size="11" lengthAdjust="spacingAndGlyphs" text-decoration="underline" textLength="51" x="58.5" y="178.9502">dataFolder</text><line style="stroke: #000000; stroke-width: 1.0;" x1="58.5" x2="109.5" y1="180.9502" y2="180.9502"/><text fill="#000000" font-family="sans-serif" font-size="11" lengthAdjust="spacingAndGlyphs" textLength="8" x="109.5" y="178.9502">()</text><rect fill="#FEFECE" filter="url(#f1)" height="97.6953" style="stroke: #A80036; stroke-width: 1.5;" width="92" x="203" y="73.5"/><ellipse cx="218.9" cy="93.5938" fill="#ADD1B2" rx="11" ry="11" style="stroke: #A80036; stroke-width: 1.0;"/><path d="M221.6656,89.4688 Q221.8219,89.25 222.0094,89.1406 Q222.1969,89.0313 222.4156,89.0313 Q222.7906,89.0313 223.025,89.2891 Q223.2594,89.5469 223.2594,90.1563 L223.2594,91.6094 Q223.2594,92.2188 223.025,92.4844 Q222.7906,92.75 222.4156,92.75 Q222.0719,92.75 221.8688,92.5469 Q221.6656,92.3594 221.5563,91.8438 Q221.5094,91.4844 221.3219,91.2969 Q220.9938,90.9219 220.3844,90.7031 Q219.775,90.4844 219.15,90.4844 Q218.3844,90.4844 217.7516,90.8125 Q217.1188,91.1406 216.6266,91.8906 Q216.1344,92.6406 216.1344,93.6719 L216.1344,94.7656 Q216.1344,96 217.025,96.8203 Q217.9156,97.6406 219.5094,97.6406 Q220.4469,97.6406 221.1031,97.3906 Q221.4938,97.2344 221.9156,96.7969 Q222.1813,96.5313 222.3297,96.4531 Q222.4781,96.375 222.6813,96.375 Q223.0094,96.375 223.2672,96.6328 Q223.525,96.8906 223.525,97.2344 Q223.525,97.5781 223.1813,97.9844 Q222.6813,98.5625 221.8844,98.8906 Q220.8063,99.3438 219.5094,99.3438 Q217.9938,99.3438 216.7906,98.7188 Q215.8063,98.2188 215.1188,97.1484 Q214.4313,96.0781 214.4313,94.7969 L214.4313,93.6406 Q214.4313,92.3125 215.0484,91.1641 Q215.6656,90.0156 216.7594,89.3984 Q217.8531,88.7813 219.0875,88.7813 Q219.8219,88.7813 220.4703,88.9453 Q221.1188,89.1094 221.6656,89.4688 Z "/><text fill="#000000" font-family="sans-serif" font-size="12" font-style="italic" lengthAdjust="spacingAndGlyphs" textLength="42" x="241.1" y="90.957">«class»</text><text fill="#000000" font-family="sans-serif" font-size="12" lengthAdjust="spacingAndGlyphs" textLength="58" x="233.1" y="106.0508">HtmlString</text><line style="stroke: #A80036; stroke-width: 1.5;" x1="204" x2="294" y1="113.6875" y2="113.6875"/><rect fill="none" height="6" style="stroke: #C82930; stroke-width: 1.0;" width="6" x="211" y="123.1055"/><text fill="#000000" font-family="sans-serif" font-size="11" lengthAdjust="spacingAndGlyphs" textLength="26" x="223" y="129.1064">value</text><line style="stroke: #A80036; stroke-width: 1.0;" x1="204" x2="294" y1="135.5234" y2="135.5234"/><ellipse cx="214" cy="147.9414" fill="#84BE84" rx="3" ry="3" style="stroke: #038048; stroke-width: 1.0;"/><text fill="#000000" font-family="sans-serif" font-size="11" lengthAdjust="spacingAndGlyphs" textLength="66" x="223" y="150.9424">__construct()</text><ellipse cx="214" cy="161.7773" fill="#84BE84" rx="3" ry="3" style="stroke: #038048; stroke-width: 1.0;"/><text fill="#000000" font-family="sans-serif" font-size="11" lengthAdjust="spacingAndGlyphs" textLength="57" x="223" y="164.7783">__toString()</text><rect fill="#FEFECE" filter="url(#f1)" height="125.3672" style="stroke: #A80036; stroke-width: 1.5;" width="112" x="330" y="60"/><ellipse cx="345" cy="80.0938" fill="#ADD1B2" rx="11" ry="11" style="stroke: #A80036; stroke-width: 1.0;"/><path d="M347.7656,75.9688 Q347.9219,75.75 348.1094,75.6406 Q348.2969,75.5313 348.5156,75.5313 Q348.8906,75.5313 349.125,75.7891 Q349.3594,76.0469 349.3594,76.6563 L349.3594,78.1094 Q349.3594,78.7188 349.125,78.9844 Q348.8906,79.25 348.5156,79.25 Q348.1719,79.25 347.9688,79.0469 Q347.7656,78.8594 347.6563,78.3438 Q347.6094,77.9844 347.4219,77.7969 Q347.0938,77.4219 346.4844,77.2031 Q345.875,76.9844 345.25,76.9844 Q344.4844,76.9844 343.8516,77.3125 Q343.2188,77.6406 342.7266,78.3906 Q342.2344,79.1406 342.2344,80.1719 L342.2344,81.2656 Q342.2344,82.5 343.125,83.3203 Q344.0156,84.1406 345.6094,84.1406 Q346.5469,84.1406 347.2031,83.8906 Q347.5938,83.7344 348.0156,83.2969 Q348.2813,83.0313 348.4297,82.9531 Q348.5781,82.875 348.7813,82.875 Q349.1094,82.875 349.3672,83.1328 Q349.625,83.3906 349.625,83.7344 Q349.625,84.0781 349.2813,84.4844 Q348.7813,85.0625 347.9844,85.3906 Q346.9063,85.8438 345.6094,85.8438 Q344.0938,85.8438 342.8906,85.2188 Q341.9063,84.7188 341.2188,83.6484 Q340.5313,82.5781 340.5313,81.2969 L340.5313,80.1406 Q340.5313,78.8125 341.1484,77.6641 Q341.7656,76.5156 342.8594,75.8984 Q343.9531,75.2813 345.1875,75.2813 Q345.9219,75.2813 346.5703,75.4453 Q347.2188,75.6094 347.7656,75.9688 Z "/><text fill="#000000" font-family="sans-serif" font-size="12" font-style="italic" lengthAdjust="spacingAndGlyphs" textLength="42" x="378" y="77.457">«class»</text><text fill="#000000" font-family="sans-serif" font-size="12" lengthAdjust="spacingAndGlyphs" textLength="80" x="359" y="92.5508">MainController</text><line style="stroke: #A80036; stroke-width: 1.5;" x1="331" x2="441" y1="100.1875" y2="100.1875"/><line style="stroke: #A80036; stroke-width: 1.5;" x1="331" x2="441" y1="108.1875" y2="108.1875"/><ellipse cx="341" cy="120.6055" fill="#84BE84" rx="3" ry="3" style="stroke: #038048; stroke-width: 1.0;"/><text fill="#000000" font-family="sans-serif" font-size="11" lengthAdjust="spacingAndGlyphs" textLength="72" x="350" y="123.6064">defaultAction()</text><rect fill="#F24D5C" height="6" style="stroke: #C82930; stroke-width: 1.0;" width="6" x="338" y="131.4414"/><text fill="#000000" font-family="sans-serif" font-size="11" lengthAdjust="spacingAndGlyphs" textLength="73" x="350" y="137.4424">highscoreList()</text><rect fill="#F24D5C" height="6" style="stroke: #C82930; stroke-width: 1.0;" width="6" x="338" y="145.2773"/><text fill="#000000" font-family="sans-serif" font-size="11" lengthAdjust="spacingAndGlyphs" textLength="79" x="350" y="151.2783">newHighscore()</text><rect fill="#F24D5C" height="6" style="stroke: #C82930; stroke-width: 1.0;" width="6" x="338" y="159.1133"/><text fill="#000000" font-family="sans-serif" font-size="11" lengthAdjust="spacingAndGlyphs" textLength="48" x="350" y="165.1143">headers()</text><rect fill="#F24D5C" height="6" style="stroke: #C82930; stroke-width: 1.0;" width="6" x="338" y="172.9492"/><text fill="#000000" font-family="sans-serif" font-size="11" lengthAdjust="spacingAndGlyphs" textLength="40" x="350" y="178.9502">langJS()</text><rect fill="#FEFECE" filter="url(#f1)" height="97.6953" style="stroke: #A80036; stroke-width: 1.5;" width="71" x="60.5" y="307"/><ellipse cx="75.95" cy="327.0938" fill="#ADD1B2" rx="11" ry="11" style="stroke: #A80036; stroke-width: 1.0;"/><path d="M78.7156,322.9688 Q78.8719,322.75 79.0594,322.6406 Q79.2469,322.5313 79.4656,322.5313 Q79.8406,322.5313 80.075,322.7891 Q80.3094,323.0469 80.3094,323.6563 L80.3094,325.1094 Q80.3094,325.7188 80.075,325.9844 Q79.8406,326.25 79.4656,326.25 Q79.1219,326.25 78.9188,326.0469 Q78.7156,325.8594 78.6063,325.3438 Q78.5594,324.9844 78.3719,324.7969 Q78.0438,324.4219 77.4344,324.2031 Q76.825,323.9844 76.2,323.9844 Q75.4344,323.9844 74.8016,324.3125 Q74.1688,324.6406 73.6766,325.3906 Q73.1844,326.1406 73.1844,327.1719 L73.1844,328.2656 Q73.1844,329.5 74.075,330.3203 Q74.9656,331.1406 76.5594,331.1406 Q77.4969,331.1406 78.1531,330.8906 Q78.5438,330.7344 78.9656,330.2969 Q79.2313,330.0313 79.3797,329.9531 Q79.5281,329.875 79.7313,329.875 Q80.0594,329.875 80.3172,330.1328 Q80.575,330.3906 80.575,330.7344 Q80.575,331.0781 80.2313,331.4844 Q79.7313,332.0625 78.9344,332.3906 Q77.8563,332.8438 76.5594,332.8438 Q75.0438,332.8438 73.8406,332.2188 Q72.8563,331.7188 72.1688,330.6484 Q71.4813,329.5781 71.4813,328.2969 L71.4813,327.1406 Q71.4813,325.8125 72.0984,324.6641 Q72.7156,323.5156 73.8094,322.8984 Q74.9031,322.2813 76.1375,322.2813 Q76.8719,322.2813 77.5203,322.4453 Q78.1688,322.6094 78.7156,322.9688 Z "/><text fill="#000000" font-family="sans-serif" font-size="12" font-style="italic" lengthAdjust="spacingAndGlyphs" textLength="42" x="88.05" y="324.457">«class»</text><text fill="#000000" font-family="sans-serif" font-size="12" lengthAdjust="spacingAndGlyphs" textLength="35" x="91.55" y="339.5508">Plugin</text><line style="stroke: #A80036; stroke-width: 1.5;" x1="61.5" x2="130.5" y1="347.1875" y2="347.1875"/><ellipse cx="71.5" cy="359.6055" fill="none" rx="3" ry="3" style="stroke: #038048; stroke-width: 1.0;"/><text fill="#000000" font-family="sans-serif" font-size="11" lengthAdjust="spacingAndGlyphs" textLength="45" x="80.5" y="362.6064">VERSION</text><line style="stroke: #A80036; stroke-width: 1.0;" x1="61.5" x2="130.5" y1="369.0234" y2="369.0234"/><ellipse cx="71.5" cy="381.4414" fill="#84BE84" rx="3" ry="3" style="stroke: #038048; stroke-width: 1.0;"/><text fill="#000000" font-family="sans-serif" font-size="11" lengthAdjust="spacingAndGlyphs" text-decoration="underline" textLength="16" x="80.5" y="384.4424">run</text><line style="stroke: #000000; stroke-width: 1.0;" x1="80.5" x2="96.5" y1="386.4424" y2="386.4424"/><text fill="#000000" font-family="sans-serif" font-size="11" lengthAdjust="spacingAndGlyphs" textLength="8" x="96.5" y="384.4424">()</text><rect fill="#F24D5C" height="6" style="stroke: #C82930; stroke-width: 1.0;" width="6" x="68.5" y="392.2773"/><text fill="#000000" font-family="sans-serif" font-size="11" lengthAdjust="spacingAndGlyphs" text-decoration="underline" textLength="36" x="80.5" y="398.2783">version</text><line style="stroke: #000000; stroke-width: 1.0;" x1="80.5" x2="116.5" y1="400.2783" y2="400.2783"/><text fill="#000000" font-family="sans-serif" font-size="11" lengthAdjust="spacingAndGlyphs" textLength="8" x="116.5" y="398.2783">()</text><rect fill="#FEFECE" filter="url(#f1)" height="180.7109" style="stroke: #A80036; stroke-width: 1.5;" width="148" x="167" y="265.5"/><ellipse cx="182" cy="285.5938" fill="#ADD1B2" rx="11" ry="11" style="stroke: #A80036; stroke-width: 1.0;"/><path d="M184.7656,281.4688 Q184.9219,281.25 185.1094,281.1406 Q185.2969,281.0313 185.5156,281.0313 Q185.8906,281.0313 186.125,281.2891 Q186.3594,281.5469 186.3594,282.1563 L186.3594,283.6094 Q186.3594,284.2188 186.125,284.4844 Q185.8906,284.75 185.5156,284.75 Q185.1719,284.75 184.9688,284.5469 Q184.7656,284.3594 184.6563,283.8438 Q184.6094,283.4844 184.4219,283.2969 Q184.0938,282.9219 183.4844,282.7031 Q182.875,282.4844 182.25,282.4844 Q181.4844,282.4844 180.8516,282.8125 Q180.2188,283.1406 179.7266,283.8906 Q179.2344,284.6406 179.2344,285.6719 L179.2344,286.7656 Q179.2344,288 180.125,288.8203 Q181.0156,289.6406 182.6094,289.6406 Q183.5469,289.6406 184.2031,289.3906 Q184.5938,289.2344 185.0156,288.7969 Q185.2813,288.5313 185.4297,288.4531 Q185.5781,288.375 185.7813,288.375 Q186.1094,288.375 186.3672,288.6328 Q186.625,288.8906 186.625,289.2344 Q186.625,289.5781 186.2813,289.9844 Q185.7813,290.5625 184.9844,290.8906 Q183.9063,291.3438 182.6094,291.3438 Q181.0938,291.3438 179.8906,290.7188 Q178.9063,290.2188 178.2188,289.1484 Q177.5313,288.0781 177.5313,286.7969 L177.5313,285.6406 Q177.5313,284.3125 178.1484,283.1641 Q178.7656,282.0156 179.8594,281.3984 Q180.9531,280.7813 182.1875,280.7813 Q182.9219,280.7813 183.5703,280.9453 Q184.2188,281.1094 184.7656,281.4688 Z "/><text fill="#000000" font-family="sans-serif" font-size="12" font-style="italic" lengthAdjust="spacingAndGlyphs" textLength="42" x="233" y="282.957">«class»</text><text fill="#000000" font-family="sans-serif" font-size="12" lengthAdjust="spacingAndGlyphs" textLength="116" x="196" y="298.0508">SystemCheckService</text><line style="stroke: #A80036; stroke-width: 1.5;" x1="168" x2="314" y1="305.6875" y2="305.6875"/><rect fill="none" height="6" style="stroke: #C82930; stroke-width: 1.0;" width="6" x="175" y="315.1055"/><text fill="#000000" font-family="sans-serif" font-size="11" lengthAdjust="spacingAndGlyphs" textLength="58" x="187" y="321.1064">pluginFolder</text><rect fill="none" height="6" style="stroke: #C82930; stroke-width: 1.0;" width="6" x="175" y="328.9414"/><text fill="#000000" font-family="sans-serif" font-size="11" lengthAdjust="spacingAndGlyphs" textLength="20" x="187" y="334.9424">lang</text><line style="stroke: #A80036; stroke-width: 1.0;" x1="168" x2="314" y1="341.3594" y2="341.3594"/><ellipse cx="178" cy="353.7773" fill="#84BE84" rx="3" ry="3" style="stroke: #038048; stroke-width: 1.0;"/><text fill="#000000" font-family="sans-serif" font-size="11" lengthAdjust="spacingAndGlyphs" textLength="66" x="187" y="356.7783">__construct()</text><ellipse cx="178" cy="367.6133" fill="#84BE84" rx="3" ry="3" style="stroke: #038048; stroke-width: 1.0;"/><text fill="#000000" font-family="sans-serif" font-size="11" lengthAdjust="spacingAndGlyphs" textLength="59" x="187" y="370.6143">getChecks()</text><rect fill="#F24D5C" height="6" style="stroke: #C82930; stroke-width: 1.0;" width="6" x="175" y="378.4492"/><text fill="#000000" font-family="sans-serif" font-size="11" lengthAdjust="spacingAndGlyphs" textLength="93" x="187" y="384.4502">checkPhpVersion()</text><rect fill="#F24D5C" height="6" style="stroke: #C82930; stroke-width: 1.0;" width="6" x="175" y="392.2852"/><text fill="#000000" font-family="sans-serif" font-size="11" lengthAdjust="spacingAndGlyphs" textLength="84" x="187" y="398.2861">checkExtension()</text><rect fill="#F24D5C" height="6" style="stroke: #C82930; stroke-width: 1.0;" width="6" x="175" y="406.1211"/><text fill="#000000" font-family="sans-serif" font-size="11" lengthAdjust="spacingAndGlyphs" textLength="88" x="187" y="412.1221">checkXhVersion()</text><rect fill="#F24D5C" height="6" style="stroke: #C82930; stroke-width: 1.0;" width="6" x="175" y="419.957"/><text fill="#000000" font-family="sans-serif" font-size="11" lengthAdjust="spacingAndGlyphs" textLength="65" x="187" y="425.958">checkPlugin()</text><rect fill="#F24D5C" height="6" style="stroke: #C82930; stroke-width: 1.0;" width="6" x="175" y="433.793"/><text fill="#000000" font-family="sans-serif" font-size="11" lengthAdjust="spacingAndGlyphs" textLength="83" x="187" y="439.7939">checkWritability()</text><rect fill="#FEFECE" filter="url(#f1)" height="222.2188" style="stroke: #A80036; stroke-width: 1.5;" width="92" x="350" y="245"/><ellipse cx="374.9" cy="265.0938" fill="#ADD1B2" rx="11" ry="11" style="stroke: #A80036; stroke-width: 1.0;"/><path d="M377.6656,260.9688 Q377.8219,260.75 378.0094,260.6406 Q378.1969,260.5313 378.4156,260.5313 Q378.7906,260.5313 379.025,260.7891 Q379.2594,261.0469 379.2594,261.6563 L379.2594,263.1094 Q379.2594,263.7188 379.025,263.9844 Q378.7906,264.25 378.4156,264.25 Q378.0719,264.25 377.8688,264.0469 Q377.6656,263.8594 377.5563,263.3438 Q377.5094,262.9844 377.3219,262.7969 Q376.9938,262.4219 376.3844,262.2031 Q375.775,261.9844 375.15,261.9844 Q374.3844,261.9844 373.7516,262.3125 Q373.1188,262.6406 372.6266,263.3906 Q372.1344,264.1406 372.1344,265.1719 L372.1344,266.2656 Q372.1344,267.5 373.025,268.3203 Q373.9156,269.1406 375.5094,269.1406 Q376.4469,269.1406 377.1031,268.8906 Q377.4938,268.7344 377.9156,268.2969 Q378.1813,268.0313 378.3297,267.9531 Q378.4781,267.875 378.6813,267.875 Q379.0094,267.875 379.2672,268.1328 Q379.525,268.3906 379.525,268.7344 Q379.525,269.0781 379.1813,269.4844 Q378.6813,270.0625 377.8844,270.3906 Q376.8063,270.8438 375.5094,270.8438 Q373.9938,270.8438 372.7906,270.2188 Q371.8063,269.7188 371.1188,268.6484 Q370.4313,267.5781 370.4313,266.2969 L370.4313,265.1406 Q370.4313,263.8125 371.0484,262.6641 Q371.6656,261.5156 372.7594,260.8984 Q373.8531,260.2813 375.0875,260.2813 Q375.8219,260.2813 376.4703,260.4453 Q377.1188,260.6094 377.6656,260.9688 Z "/><text fill="#000000" font-family="sans-serif" font-size="12" font-style="italic" lengthAdjust="spacingAndGlyphs" textLength="42" x="389.1" y="262.457">«class»</text><text fill="#000000" font-family="sans-serif" font-size="12" lengthAdjust="spacingAndGlyphs" textLength="26" x="397.1" y="277.5508">View</text><line style="stroke: #A80036; stroke-width: 1.5;" x1="351" x2="441" y1="285.1875" y2="285.1875"/><rect fill="none" height="6" style="stroke: #C82930; stroke-width: 1.0;" width="6" x="358" y="294.6055"/><text fill="#000000" font-family="sans-serif" font-size="11" lengthAdjust="spacingAndGlyphs" textLength="40" x="370" y="300.6064">template</text><rect fill="none" height="6" style="stroke: #C82930; stroke-width: 1.0;" width="6" x="358" y="308.4414"/><text fill="#000000" font-family="sans-serif" font-size="11" lengthAdjust="spacingAndGlyphs" textLength="21" x="370" y="314.4424">data</text><line style="stroke: #A80036; stroke-width: 1.0;" x1="351" x2="441" y1="320.8594" y2="320.8594"/><ellipse cx="361" cy="333.2773" fill="#84BE84" rx="3" ry="3" style="stroke: #038048; stroke-width: 1.0;"/><text fill="#000000" font-family="sans-serif" font-size="11" lengthAdjust="spacingAndGlyphs" textLength="66" x="370" y="336.2783">__construct()</text><ellipse cx="361" cy="347.1133" fill="#84BE84" rx="3" ry="3" style="stroke: #038048; stroke-width: 1.0;"/><text fill="#000000" font-family="sans-serif" font-size="11" lengthAdjust="spacingAndGlyphs" textLength="35" x="370" y="350.1143">__set()</text><ellipse cx="361" cy="360.9492" fill="#84BE84" rx="3" ry="3" style="stroke: #038048; stroke-width: 1.0;"/><text fill="#000000" font-family="sans-serif" font-size="11" lengthAdjust="spacingAndGlyphs" textLength="35" x="370" y="363.9502">__get()</text><ellipse cx="361" cy="374.7852" fill="#84BE84" rx="3" ry="3" style="stroke: #038048; stroke-width: 1.0;"/><text fill="#000000" font-family="sans-serif" font-size="11" lengthAdjust="spacingAndGlyphs" textLength="43" x="370" y="377.7861">__isset()</text><ellipse cx="361" cy="388.6211" fill="#84BE84" rx="3" ry="3" style="stroke: #038048; stroke-width: 1.0;"/><text fill="#000000" font-family="sans-serif" font-size="11" lengthAdjust="spacingAndGlyphs" textLength="36" x="370" y="391.6221">__call()</text><ellipse cx="361" cy="402.457" fill="#84BE84" rx="3" ry="3" style="stroke: #038048; stroke-width: 1.0;"/><text fill="#000000" font-family="sans-serif" font-size="11" lengthAdjust="spacingAndGlyphs" textLength="57" x="370" y="405.458">__toString()</text><polygon fill="#FFFF44" points="361,411.293,365,415.293,361,419.293,357,415.293" style="stroke: #B38D22; stroke-width: 1.0;"/><text fill="#000000" font-family="sans-serif" font-size="11" lengthAdjust="spacingAndGlyphs" textLength="26" x="370" y="419.2939">text()</text><polygon fill="#FFFF44" points="361,425.1289,365,429.1289,361,433.1289,357,429.1289" style="stroke: #B38D22; stroke-width: 1.0;"/><text fill="#000000" font-family="sans-serif" font-size="11" lengthAdjust="spacingAndGlyphs" textLength="34" x="370" y="433.1299">plural()</text><ellipse cx="361" cy="443.9648" fill="#84BE84" rx="3" ry="3" style="stroke: #038048; stroke-width: 1.0;"/><text fill="#000000" font-family="sans-serif" font-size="11" lengthAdjust="spacingAndGlyphs" textLength="40" x="370" y="446.9658">render()</text><polygon fill="#FFFF44" points="361,452.8008,365,456.8008,361,460.8008,357,456.8008" style="stroke: #B38D22; stroke-width: 1.0;"/><text fill="#000000" font-family="sans-serif" font-size="11" lengthAdjust="spacingAndGlyphs" textLength="44" x="370" y="460.8018">escape()</text></g></svg>